<svg xmlns="http://www.w3.org/2000/svg" xmlns:xlink="http://www.w3.org/1999/xlink" width="1080" zoomAndPan="magnify" viewBox="0 0 810 809.999993" height="1080" preserveAspectRatio="xMidYMid meet" version="1.0"><defs><g/></defs><rect x="-81" width="972" fill="#ffffff" y="-80.999999" height="971.999992" fill-opacity="1"/><rect x="-81" width="972" fill="#ffffff" y="-80.999999" height="971.999992" fill-opacity="1"/><g fill="#000000" fill-opacity="1"><g transform="translate(124.682004, 536.316511)"><g><path d="M 8.15625 0 L 85.8125 -230.5 L 117.375 -230.5 L 193.609375 0 L 165.609375 0 L 141.484375 -70.921875 L 51.0625 -70.921875 L 26.953125 0 Z M 56.03125 -85.453125 L 136.875 -85.453125 L 96.8125 -209.921875 Z M 56.03125 -85.453125 "/></g></g></g><g fill="#000000" fill-opacity="1"><g transform="translate(319.006544, 536.316511)"><g><path d="M 39.359375 -213.125 C 35.109375 -213.125 31.679688 -214.421875 29.078125 -217.015625 C 26.003906 -220.085938 24.46875 -223.875 24.46875 -228.375 C 24.46875 -232.863281 26.003906 -236.644531 29.078125 -239.71875 C 31.679688 -242.3125 35.109375 -243.609375 39.359375 -243.609375 C 43.847656 -243.609375 47.394531 -242.429688 50 -240.078125 C 52.832031 -236.992188 54.25 -233.09375 54.25 -228.375 C 54.25 -224.113281 52.832031 -220.328125 50 -217.015625 C 46.6875 -214.421875 43.140625 -213.125 39.359375 -213.125 Z M 26.234375 0 L 26.234375 -177.3125 L 52.125 -177.3125 L 52.125 0 Z M 26.234375 0 "/></g></g></g><g fill="#000000" fill-opacity="1"><g transform="translate(390.637079, 536.316511)"><g><path d="M 70.21875 3.546875 C 57.445312 3.546875 47.988281 -0.410156 41.84375 -8.328125 C 35.695312 -16.253906 32.625 -29.316406 32.625 -47.515625 L 32.625 -159.921875 L 14.1875 -159.921875 L 14.1875 -174.828125 L 32.625 -176.953125 L 42.203125 -233.328125 L 58.515625 -233.328125 L 58.515625 -177.3125 L 103.90625 -177.3125 L 103.90625 -159.921875 L 58.515625 -159.921875 L 58.515625 -53.90625 C 58.515625 -38.53125 59.988281 -27.945312 62.9375 -22.15625 C 65.894531 -16.363281 71.039062 -13.46875 78.375 -13.46875 C 84.28125 -13.46875 89.597656 -14.054688 94.328125 -15.234375 C 99.054688 -16.421875 101.421875 -17.132812 101.421875 -17.375 L 103.1875 -3.1875 C 102.71875 -2.71875 101.238281 -1.953125 98.75 -0.890625 C 96.269531 0.171875 92.609375 1.175781 87.765625 2.125 C 82.921875 3.070312 77.070312 3.546875 70.21875 3.546875 Z M 70.21875 3.546875 "/></g></g></g><g fill="#000000" fill-opacity="1"><g transform="translate(499.146747, 536.316511)"><g><path d="M 63.125 3.546875 C 47.519531 3.546875 34.988281 -0.289062 25.53125 -7.96875 C 16.070312 -15.65625 11.34375 -26.359375 11.34375 -40.078125 C 11.34375 -74.828125 44.796875 -95.75 111.703125 -102.84375 L 111.703125 -121.625 C 111.703125 -138.414062 108.984375 -149.882812 103.546875 -156.03125 C 98.109375 -162.175781 88.535156 -165.25 74.828125 -165.25 C 68.679688 -165.25 62.414062 -164.125 56.03125 -161.875 C 49.644531 -159.632812 44.265625 -157.269531 39.890625 -154.78125 C 35.515625 -152.300781 32.738281 -150.707031 31.5625 -150 L 28.71875 -164.53125 C 29.90625 -165.476562 32.921875 -167.253906 37.765625 -169.859375 C 42.609375 -172.460938 48.753906 -174.941406 56.203125 -177.296875 C 63.648438 -179.660156 71.15625 -180.84375 78.71875 -180.84375 C 99.050781 -180.84375 113.945312 -176.585938 123.40625 -168.078125 C 132.863281 -159.566406 137.59375 -144.554688 137.59375 -123.046875 L 137.59375 -36.171875 C 137.59375 -26.710938 138.476562 -20.328125 140.25 -17.015625 C 142.019531 -13.710938 144.207031 -12.0625 146.8125 -12.0625 C 148.9375 -12.0625 151.535156 -12.472656 154.609375 -13.296875 C 157.679688 -14.117188 159.691406 -14.769531 160.640625 -15.25 L 161.703125 -3.1875 C 159.804688 -2.476562 155.785156 -1.179688 149.640625 0.703125 C 143.492188 2.597656 138.296875 3.546875 134.046875 3.546875 C 127.898438 3.546875 123.171875 1.597656 119.859375 -2.296875 C 116.546875 -6.203125 114.535156 -13.117188 113.828125 -23.046875 L 113.46875 -23.046875 C 113.46875 -22.097656 111.578125 -19.378906 107.796875 -14.890625 C 104.015625 -10.398438 98.398438 -6.203125 90.953125 -2.296875 C 83.503906 1.597656 74.226562 3.546875 63.125 3.546875 Z M 70.921875 -12.0625 C 79.429688 -12.0625 86.757812 -13.953125 92.90625 -17.734375 C 99.050781 -21.515625 103.71875 -25.648438 106.90625 -30.140625 C 110.101562 -34.628906 111.703125 -37.226562 111.703125 -37.9375 L 111.703125 -89.71875 C 90.191406 -87.351562 72.519531 -82.742188 58.6875 -75.890625 C 44.851562 -69.035156 37.9375 -58.160156 37.9375 -43.265625 C 37.9375 -33.097656 40.890625 -25.351562 46.796875 -20.03125 C 52.710938 -14.71875 60.753906 -12.0625 70.921875 -12.0625 Z M 70.921875 -12.0625 "/></g></g></g></svg>