<?xml version="1.0" encoding="utf-8"?>
<!-- Generator: Adobe Illustrator 28.6.0, SVG Export Plug-In . SVG Version: 9.03 Build 54939)  -->
<svg version="1.1" id="Layer_1" xmlns="http://www.w3.org/2000/svg" xmlns:xlink="http://www.w3.org/1999/xlink" x="0px" y="0px"
	 width="800px" height="330.7px" viewBox="0 0 800 330.7" style="enable-background:new 0 0 800 330.7;" xml:space="preserve">
<style type="text/css">
	.Drop_x0020_Shadow{fill:none;}
	.Round_x0020_Corners_x0020_2_x0020_pt{fill:#FFFFFF;stroke:#000000;stroke-miterlimit:10;}
	.Live_x0020_Reflect_x0020_X{fill:none;}
	.Bevel_x0020_Soft{fill:url(#SVGID_1_);}
	.Dusk{fill:#FFFFFF;}
	.Foliage_GS{fill:#FFDD00;}
	.Pompadour_GS{fill-rule:evenodd;clip-rule:evenodd;fill:#44ADE2;}
	.st0{fill-rule:evenodd;clip-rule:evenodd;fill:#09314F;}
	.st1{fill-rule:evenodd;clip-rule:evenodd;fill:#E5EA8C;}
	.st2{fill-rule:evenodd;clip-rule:evenodd;fill:#DEC472;}
	.st3{fill-rule:evenodd;clip-rule:evenodd;fill:#FFFFFF;}
	.st4{fill-rule:evenodd;clip-rule:evenodd;fill:#75B543;}
	.st5{fill-rule:evenodd;clip-rule:evenodd;fill:#5D9440;}
	.st6{fill-rule:evenodd;clip-rule:evenodd;fill:#467C44;}
	.st7{fill-rule:evenodd;clip-rule:evenodd;fill:#BBA761;}
	.st8{fill-rule:evenodd;clip-rule:evenodd;fill:#B6D468;}
	.st9{fill-rule:evenodd;clip-rule:evenodd;fill:#C8C8C7;}
	.st10{fill-rule:evenodd;clip-rule:evenodd;fill:#CE6C6B;}
	.st11{fill-rule:evenodd;clip-rule:evenodd;fill:#B4B4B6;}
	.st12{fill-rule:evenodd;clip-rule:evenodd;fill:#DD9493;}
	.st13{fill:#5D9440;}
	.st14{fill:#FFFFFF;}
	.st15{fill-rule:evenodd;clip-rule:evenodd;fill:#010101;}
</style>
<linearGradient id="SVGID_1_" gradientUnits="userSpaceOnUse" x1="-1640" y1="-234.6697" x2="-1639.2928" y2="-233.9626">
	<stop  offset="0" style="stop-color:#DEDFE3"/>
	<stop  offset="0.1738" style="stop-color:#D8D9DD"/>
	<stop  offset="0.352" style="stop-color:#C9CACD"/>
	<stop  offset="0.5323" style="stop-color:#B4B5B8"/>
	<stop  offset="0.7139" style="stop-color:#989A9C"/>
	<stop  offset="0.8949" style="stop-color:#797C7E"/>
	<stop  offset="1" style="stop-color:#656B6C"/>
</linearGradient>
<g>
	<g>
		<g>
			<path class="st14" d="M430.3,153.7c0,5.8-2.3,11.5-6.4,15.6c-3.6,3.6-8.3,2-8.3,7.1c0,5.1,5.2,3,8.8,6.6
				c4.1,4.1,6.8,10.3,6.8,16.2c0,6.9-0.8,6.9-0.8,13.9c0,6.9-0.1,6.9-0.1,13.9c0,6.9-0.5,6.9-0.5,13.9c0,3.8-2.8,8-6.5,8
				c-6.9,0-6.9-0.4-13.7-0.4c-3.8,0-5.9-3.8-5.9-7.5c0-7.3,0.1-7.3,0.1-14.6s-0.7-7.3-0.7-14.6c0-7.3-1.2-7.3-1.2-14.6
				c0-3.8-2.3-6.6-6.1-6.5c-3.8,0.1-8.1,3-8.1,6.8c0,7.3,2.7,7.3,2.7,14.5c0,7.3-0.5,7.3-0.5,14.5c0,7.3-1.4,7.3-1.4,14.5
				c0,3.8-2.5,6.5-6.2,6.5c-6.9,0-6.9,0.6-13.7,0.6c-3.8,0-6-3.3-6-7.1c0-6.5-1.5-6.5-1.5-13.1c0-6.5,1.5-6.5,1.5-13.1
				c0-6.5-1.8-6.5-1.8-13.1c0-6.5,1.8-6.5,1.8-13.1s-1.9-6.5-1.9-13.1s-0.4-6.5-0.4-13.1s1.3-6.5,1.3-13.1c0-6.5,0.1-6.5,0.1-13.1
				c0-6.5-0.1-6.5-0.1-13.1c0-6.5-0.2-6.5-0.2-13.1s-0.4-6.5-0.4-13.1c0-3.8,2-7.3,4.5-9.8c2.5-2.5,6-5,9.8-5c5.5,0,5.5,0.2,11,0.2
				c5.5,0,5.5,1.5,11,1.5c5.5,0,5.5,0.6,11,0.6c4,0,8.3-1.2,11.6,0.6c3.3,1.9,6.2,5.3,8.1,8.7c1.9,3.2,2.8,7.4,2.8,11.4
				c0,6.1,0.3,6.1,0.3,12.1c0,6.1-0.6,6.1-0.6,12.1c0,6.1-0.2,6.1-0.2,12.1C430.3,147.6,430.3,147.6,430.3,153.7L430.3,153.7z
				 M402.6,155.9c0-6.4-0.8-6.4-0.8-12.8c0-6.4,1.5-6.4,1.5-12.8c0-6.4,0.6-6.4,0.6-12.8c0-3.8-4.3-5.7-8.1-5.7
				c-3.8,0-6.1,1.9-6.1,5.7c0,6.4-0.2,6.4-0.2,12.8c0,6.4,0.3,6.4,0.3,12.8c0,6.4-0.6,6.4-0.6,12.8c0,3.8,2.8,6.7,6.6,6.7
				C399.7,162.7,402.6,159.7,402.6,155.9L402.6,155.9z"/>
			<path class="st14" d="M511.9,90.1c0,6.2,0.9,6.2,0.9,12.4s-1.5,6.2-1.5,12.4c0,6.2,1.8,6.2,1.8,12.4c0,6.2-2.2,6.2-2.2,12.4
				c0,6.2,2.2,6.2,2.2,12.4s-0.5,6.2-0.5,12.4c0,6.2-1.6,6.2-1.6,12.4c0,3.7-0.4,7.1-2.9,9.6c-2.5,2.4-6,2.7-9.7,2.7
				c-3.8,0-6.7,4.2-6.7,8c0,7.3-0.9,7.3-0.9,14.6c0,7.3,0.7,7.3,0.7,14.6c0,7.3,0.2,7.3,0.2,14.6c0,3.8-3.4,7.6-7.2,7.6
				c-6.9,0-6.9-0.1-13.7-0.1c-3.8,0-6.9-3.8-6.9-7.5c0-7.3,0.3-7.3,0.3-14.6s0.4-7.3,0.4-14.6c0-7.3-0.9-7.3-0.9-14.6
				c0-3.8-2.9-7-6.7-7c-3.7,0-6.6-1.8-9-4.3c-2.4-2.4-3-5.3-3-9c0-6.2-2-6.2-2-12.4c0-6.2,0.9-6.2,0.9-12.4s0.9-6.2,0.9-12.4
				c0-6.2-2.4-6.2-2.4-12.4c0-6.2,2.4-6.2,2.4-12.4c0-6.2-0.7-6.2-0.7-12.4c0-6.2-1.3-6.2-1.3-12.4c0-3.8,3.8-7.2,7.6-7.2
				c6.9,0,6.9,0.5,13.7,0.5c3.8,0,6.1,2.9,6.1,6.7c0,6.6,1.9,6.6,1.9,13.2s-2.3,6.6-2.3,13.2c0,6.6,0.8,6.6,0.8,13.2
				s0.6,6.6,0.6,13.2c0,6.6-0.3,6.6-0.3,13.2c0,3.8,3,6.1,6.8,6.1s6-2.3,6-6.1c0-6.6,0-6.6,0-13.2c0-6.6,1.6-6.6,1.6-13.2
				c0-6.6-0.7-6.6-0.7-13.2c0-6.6,0-6.6,0-13.2s-0.4-6.6-0.4-13.2c0-3.8,3.4-5.8,7.2-5.8c6.9,0,6.9-0.3,13.7-0.3
				C509.1,84,511.9,86.3,511.9,90.1z"/>
			<path class="st14" d="M580.4,84.1c3.8,0,7.7,0.1,10.2,2.6c2.5,2.5,3.8,6.4,3.8,10.2c0,6.9-0.3,6.9-0.3,13.7
				c0,6.9-0.4,6.9-0.4,13.7c0,6.9,0.6,6.9,0.6,13.7c0,6.9,0.8,6.9,0.8,13.7c0,6.9-0.8,6.9-0.8,13.7c0,6.9,0.7,6.9,0.7,13.7
				c0,6.9,0.2,6.9,0.2,13.7c0,6.9-0.3,6.9-0.3,13.7c0,6.9,0.4,6.9,0.4,13.7c0,6.9-0.4,6.9-0.4,13.7c0,3.8-1.9,7.8-4.4,10.2
				c-2.5,2.5-6.4,3-10.2,3c-6.9,0-6.9,0.7-13.7,0.7c-6.9,0-6.9,1.1-13.7,1.1c-6.9,0-6.9-1.8-13.7-1.8c-3.8,0-7.3-1.1-9.8-3.5
				c-2.5-2.5-3.8-6-3.8-9.8c0-6.9,0.9-6.9,0.9-13.7s0-6.9,0-13.7c0-6.9,0.1-6.9,0.1-13.7c0-6.9-0.4-6.9-0.4-13.7
				c0-6.9-1.6-6.9-1.6-13.7c0-6.9,0.3-6.9,0.3-13.7c0-6.9,0.1-6.9,0.1-13.7c0-6.9,0.2-6.9,0.2-13.7c0-6.9,0.6-6.9,0.6-13.7
				c0-6.9-1.3-6.9-1.3-13.7c0-3.8,1.6-8.2,4.1-10.6c2.5-2.5,6.9-4.1,10.6-4.1c6.9,0,6.9,2.3,13.7,2.3c6.9,0,6.9-1.1,13.7-1.1
				C573.5,83.4,573.5,84.1,580.4,84.1L580.4,84.1z M567.5,213.5c0-6.9-0.2-6.9-0.5-13.7c-0.3-6.8-0.5-6.8-0.5-13.7
				c0-6.9,0.2-6.9,0.2-13.7c0-6.9,0.9-6.9,0.9-13.7c0-6.9,0-6.9,0-13.7c0-6.9,0.1-6.9,0.1-13.7c0-6.9-0.4-6.9-0.4-13.7
				c0-3.8-3.8-6-7.6-6c-3.8,0-6.3,2.2-6.3,6c0,6.9-0.1,6.9-0.1,13.7s-0.2,6.9-0.2,13.7c0,6.9-0.6,6.9-0.6,13.7
				c0,6.9,1.3,6.9,1.3,13.7c0,6.9,0.3,6.9,0.3,13.7c0,6.9-0.3,6.9-0.3,13.7c0,6.9-2.3,6.9-2.3,13.7c0,3.8,4.4,7,8.1,7
				C563.6,220.5,567.5,217.3,567.5,213.5L567.5,213.5z"/>
			<path class="st14" d="M703,82.3c3.8,0,7.2,2.6,9.7,5c2.5,2.5,3.2,5.9,3.2,9.7c0,6.5,0.7,6.5,0.7,13.1c0,6.5-1,6.5-1,13.1
				c0,6.5,0.9,6.5,0.9,13.1s0.6,6.5,0.6,13.1s0.8,6.5,0.8,13.1c0,6.5-2,6.5-2,13.1s0.8,6.5,0.8,13.1s0.8,6.5,0.8,13.1
				c0,6.5,0.5,6.5,0.5,13.1c0,6.5-0.5,6.5-0.5,13.1s-0.7,6.5-0.7,13.1c0,3.8-3,5.9-6.8,5.9c-6.9,0-6.9,2.2-13.7,2.2
				c-3.8,0-7.3-4.3-7.3-8.1c0-6.9,0-6.9,0-13.7c0-6.9,0.2-6.9,0.2-13.7c0-6.9,0.4-6.9,0.4-13.7c0-6.9,0.1-6.9,0.1-13.7
				c0-6.9,1-6.9,1-13.7c0-6.9-0.7-6.9-0.7-13.7c0-6.9-0.3-6.9-0.3-13.7c0-6.9,0.1-6.9,0.1-13.7c0-6.9,0.9-6.9,0.9-13.7
				c0-3.8-4.2-6.2-8-6.2c-3.8,0-7.6,2.4-7.6,6.2c0,6.9,1.9,6.9,1.9,13.7c0,6.9-2.5,6.9-2.5,13.7s0,6.9,0,13.7
				c0,6.9,2.2,6.9,2.2,13.7c0,6.9,0.5,6.9,0.5,13.7c0,6.9,0,6.9,0,13.7c0,6.9-1.7,6.9-1.7,13.7c0,6.9-0.9,6.9-0.9,13.7
				c0,6.9,2.3,6.9,2.3,13.7c0,3.8-4.1,5.9-7.8,5.9c-6.9,0-6.9,0.1-13.7,0.1c-3.8,0-8.2-2.2-8.2-6c0-6.9,0-6.9,0-13.7
				s1.7-6.9,1.7-13.7c0-6.9-1.7-6.9-1.7-13.7c0-6.9,2.3-6.9,2.3-13.7c0-6.9-0.6-6.9-0.6-13.7c0-6.9-1.5-6.9-1.5-13.7
				c0-6.9,2.2-6.9,2.2-13.7c0-6.9-2-6.9-2-13.7c0-6.9,0-6.9,0-13.7c0-3.8-2.2-7.1-6-7.1s-7.2,3.3-7.2,7.1c0,6.9,0.1,6.9,0.1,13.7
				c0,6.9-0.4,6.9-0.4,13.7c0,6.9,1.9,6.9,1.9,13.7c0,6.9-0.1,6.9-0.1,13.7c0,6.9-0.2,6.9-0.2,13.7c0,6.9-1,6.9-1,13.7
				c0,6.9,0.5,6.9,0.5,13.7c0,6.9-0.7,6.9-0.7,13.7c0,6.9,0.6,6.9,0.6,13.7c0,3.8-3.4,6.3-7.2,6.3c-6.9,0-6.9,0.7-13.7,0.7
				c-3.8,0-7.6-3.2-7.6-7c0-6.5,0.6-6.5,0.6-13.1c0-6.5,1.2-6.5,1.2-13.1c0-6.5,0.1-6.5,0.1-13.1s-1.6-6.5-1.6-13.1
				s0.6-6.5,0.6-13.1s0.8-6.5,0.8-13.1s0.4-6.5,0.4-13.1s-0.3-6.5-0.3-13.1c0-6.5-1.7-6.5-1.7-13.1c0-6.5,0.5-6.5,0.5-13.1
				s1.1-6.5,1.1-13.1c0-3.8,1.4-6.5,3.8-9c2.5-2.5,5.2-4.8,9-4.8c9.2,0,9.2,0.6,18.3,0.6c5.8,0,11.6,1.6,15.7,5.7
				c3.6,3.6,1.9,7.5,7.1,7.5s3.5-3.8,7.2-7.4c4.1-4.1,9.8-6.8,15.6-6.8C693.9,82.7,693.9,82.3,703,82.3L703,82.3z"/>
			<path class="st14" d="M784.9,84.2c3.8,0,6.9,1,9.3,3.5c2.5,2.5,5.6,5.6,5.6,9.3c0,6.5-0.5,6.5-0.5,13.1c0,6.5-1.5,6.5-1.5,13.1
				c0,6.5,1.8,6.5,1.8,13.1s-1.7,6.5-1.7,13.1s1,6.5,1,13.1s0.9,6.5,0.9,13.1s-1.5,6.5-1.5,13.1c0,6.5-1.2,6.5-1.2,13.1
				c0,6.5,2.3,6.5,2.3,13.1c0,6.5-1.7,6.5-1.7,13.1s1.7,6.5,1.7,13.1c0,3.8-3.9,7.2-7.7,7.2c-6.9,0-6.9-0.5-13.7-0.5
				c-3.8,0-6.7-3-6.7-6.8c0-7.3-1.3-7.3-1.3-14.6c0-7.3,1.1-7.3,1.1-14.6c0-7.3,0.1-7.3,0.1-14.6c0-3.8-3.2-6-7-5.9
				c-3.8,0.1-8,2.4-8,6.2c0,7.3,2,7.3,2,14.5c0,7.3-0.1,7.3-0.1,14.5s0.4,7.3,0.4,14.5c0,3.8-4.1,7.5-7.9,7.5
				c-6.9,0-6.9-1.2-13.7-1.2c-3.8,0-6.5-2.6-6.5-6.4c0-6.5,0.5-6.5,0.5-13.1c0-6.5,0.4-6.5,0.4-13.1c0-6.5-1.4-6.5-1.4-13.1
				s0.1-6.5,0.1-13.1s-0.6-6.5-0.6-13.1s-0.5-6.5-0.5-13.1s1.3-6.5,1.3-13.1s1.1-6.5,1.1-13.1c0-6.5-1.2-6.5-1.2-13.1
				c0-6.5-0.4-6.5-0.4-13.1s0.8-6.5,0.8-13.1c0-3.8,0.4-7.9,2.9-10.4c2.5-2.5,6.6-4,10.4-4c6.9,0,6.9-0.2,13.7-0.2
				c6.9,0,6.9,1.9,13.7,1.9C778.1,84.3,778.1,84.2,784.9,84.2L784.9,84.2z M772.1,155.9c0-6.4-0.4-6.4-0.7-12.8
				c-0.3-6.4,1.1-6.4,1.1-12.8c0-6.4-1.2-6.4-1.2-12.8c0-3.8-3.2-6.5-6.9-6.5s-7.3,2.8-7.3,6.5c0,6.4,1.4,6.4,1.4,12.8
				c0,6.4-0.3,6.4-0.3,12.8c0,6.4,0.2,6.4,0.2,12.8c0,3.8,2.2,7.9,6,7.9C768.2,163.8,772.1,159.7,772.1,155.9L772.1,155.9z"/>
		</g>
	</g>
	<g>
		<path class="st3" d="M171.2,75.5c-4.4-1.6-9-2.2-10.7,2.6c-0.9,2.7,0.5,5.5,2.8,7.4l-1.8-0.8c-3.9-2.6-4.2-9.1,0.6-11.3
			C165.6,71.7,168.7,72.9,171.2,75.5L171.2,75.5z M103.4,169.5L103.4,169.5L103.4,169.5L103.4,169.5L103.4,169.5L103.4,169.5
			L103.4,169.5L103.4,169.5L103.4,169.5z M103.4,169.5L103.4,169.5L103.4,169.5L103.4,169.5L103.4,169.5z M103.4,169.5L103.4,169.5
			L103.4,169.5L103.4,169.5L103.4,169.5L103.4,169.5L103.4,169.5L103.4,169.5z M103.4,169.5L103.4,169.5L103.4,169.5L103.4,169.5
			L103.4,169.5z M103.3,169.6L103.3,169.6L103.3,169.6L103.3,169.6L103.3,169.6L103.3,169.6z M102.6,169.9c2,1.3,3,2.7,3.3,3.9
			c0.2,0.7,0.1,1.4-0.3,2c-0.4,0.6-1,1.2-1.8,1.6c-2.3,1.2-6.2,1.4-11.1-0.3c0,0,0.1-0.1,0.1-0.1c0.1-0.3,0.2-0.5,0.3-0.8
			C95.7,174.1,98.9,172,102.6,169.9L102.6,169.9z M90.1,179.3c-2.1,2.4-3.5,5-4.1,7.8c0.3,0.1,0.5,0.2,0.8,0.3c0,0,0.1,0,0.1,0
			c4.3,1.3,7.6,1.1,9.6,0c0.8-0.4,1.4-1,1.7-1.7c0.3-0.6,0.4-1.4,0.3-2.2c-0.4-1.7-1.9-3.5-4.9-5.1c-0.1,0-0.1-0.1-0.2-0.2
			c-0.4-0.1-0.9-0.3-1.3-0.4c-0.4,0.4-0.9,0.8-1.5,1.1C90.5,179.2,90.3,179.2,90.1,179.3L90.1,179.3z M85.9,187.8c0,0.1,0,0.1,0,0.2
			c0.2,0.1,0.5,0.2,0.7,0.2c2.7,2,6.4,7,1.3,8.9c-0.2,0.1-0.4,0.1-0.7,0.2c0.1,0.1,0.1,0.3,0.2,0.4
			C85.9,194.1,85.4,190.8,85.9,187.8L85.9,187.8z M87.4,197.9c0.7,1.6,1.6,3.4,2.8,5.2c2.5,2.3,8.7,5.1,11.8,2.5
			c2.6-2.2,0.8-6.7-0.8-8.9c-2.4,0.7-6,0.3-10.1-1.7c-0.4,1.4-1.6,2.4-3,2.9c-0.2,0.1-0.4,0.1-0.6,0.2
			C87.5,198,87.5,197.9,87.4,197.9L87.4,197.9z M91.6,205.1c3.3,2,8.1,3.4,10.9,1.1c0.4-0.3,0.7-0.7,1-1.1c1.8,2.6,2.3,4.9,1.9,6.6
			c-0.2,0.8-0.6,1.5-1.2,2c-0.2,0.1-0.5,0.5-0.9,0.6c-1.2,0.5-2.9,0.4-4.1,0c0.3,0.4,0.6,0.7,0.9,1.1c0.6,0.1,1.2,0.1,1.8,0.1
			c0.5-0.1,1-0.2,1.4-0.3c0.1,0.1,0.2,0.2,0.3,0.3c0.8,1.8,1.1,3.4,1.1,4.8c-3.1-3-6.9-7.2-11.6-13
			C92.6,206.4,92.1,205.7,91.6,205.1L91.6,205.1z M104.9,220.3c1,1,2,1.9,2.9,2.6l0,0l0,0l0,0l0,0l0,0l0,0l0,0l0,0l0,0l0,0l0,0l0,0
			c0.4,0.3,0.7,0.6,1.1,0.9c0.9,0.8,1.7,1.5,2.4,2.1c0.8,0.7,1.5,1.3,2.1,1.9c0.1-0.1,0.1-0.1,0.2-0.2c0.5-0.4,1-0.9,1.3-1.6
			c1.1-2.4,0.4-6.9-1.4-8.9c-0.8,0.5-1.8,0.9-2.8,1c-1.8,0.2-3.9-0.4-5.9-1.9c0.5,1.6,0.7,3.1,0.5,4.4
			C105.3,220.7,105.1,220.5,104.9,220.3L104.9,220.3z M108.8,228.2c0.4,0.2,0.7,0.4,1.1,0.5c1.2,2.1,3,3.6,4.8,5.1
			c-1-2.2-1.6-2.9-2.2-4.1c2.2,1.3,4.4,2.2,6.6,2.7c-2.1-1.7-3.4-2.7-4.7-3.8c0.7-0.4,1.2-1.1,1.6-1.9c0.8-1.8,0.9-4.4-0.3-7.5
			c1.3,1,2.5,1.7,3.6,2c2,0.6,3.8,0.1,5.1-1c1.2-1,2.3-2.4,2.4-4.3c0.1-1.5-0.2-3.1-1.4-5.1c0.2-0.1,0.4-0.2,0.6-0.3
			c0.8-0.5,1.4-1.1,1.8-2c0.1-0.1,0.1-0.3,0.2-0.4c2.3,2.5,5,3.5,7.1,3.2c1-0.1,1.8-0.5,2.5-1.1c0.6-0.5,1-1.1,1.3-1.9
			c2.7,6.3,4.4,12.6,3.1,15.1c-0.2,0.4-0.5,0.9-0.8,1.4c-0.1-1-0.3-2.2-0.6-3.6c-0.6,2.5-1.2,4.7-1.7,7c-1,1.4-2.2,3-3.5,4.5
			c0.7-2.4,0.4-3.7-0.3-6.4c-0.6,4.5-1.7,7.6-3.6,10.8c-2,2-4,3.9-5.8,5.1c1.5-3.2,1.2-3.3,0.6-6.7c-1.8,5.7-1.9,7-6.1,8.6
			c-2-0.3-4.5-1.1-7-2.2l-1.1-0.5c-2.6-1.3-6.5-3.3-7.6-6.3C103.4,232.1,106,229,108.8,228.2L108.8,228.2z M138.8,208.1
			c-0.1-0.1-0.1-0.3-0.2-0.4C138.7,207.9,138.7,208,138.8,208.1L138.8,208.1z M138.5,207.5c0-0.1-0.1-0.2-0.1-0.3
			C138.5,207.3,138.5,207.4,138.5,207.5L138.5,207.5z M138.3,207c-1.1-2.5-2.3-4.9-3.5-7.1c-0.3,0.7-0.7,1.3-1.2,1.8
			c-0.7,0.7-1.6,1.2-2.7,1.4c-1.1,0.2-2.3,0.2-3.6-0.2c0.8,1.5,1,2.9,0.9,4.1c2.2,2.6,4.8,3.6,6.8,3.3c0.8-0.1,1.5-0.4,2.1-0.9
			c0.6-0.5,1-1.1,1.2-1.9C138.3,207.4,138.3,207.2,138.3,207L138.3,207z M134.2,199c-0.2,0.8-0.7,1.6-1.2,2.2
			c-0.6,0.6-1.4,1-2.3,1.2c-2.1,0.4-4.9-0.4-7.9-3.1c0,0,0,0,0,0c0.5-0.3,1-0.6,1.3-1c0.6-0.7,1-1.6,1.1-2.6
			c0.2-2.1-0.7-4.7-3.3-7.2l0,0c2.4,1.6,4.6,2.5,6.5,2.8c0.6,0.7,1.4,1.6,2.3,2.7C131.8,195.1,133,196.9,134.2,199L134.2,199z
			 M127.6,190.1c-2.2-2.6-2.4-2.7-2.4-2.7l0,0c-0.7-0.6-1.4-1.1-2.1-1.6c0,0.4-0.1,0.8-0.3,1.2c-0.1,0.2-0.2,0.5-0.3,0.7
			C124.3,188.9,126,189.7,127.6,190.1L127.6,190.1z M122.2,185.1c-3.6-2.4-7.4-4-11.7-5.1c0.7,1,1.1,2,1.2,2.9
			c0.1,0.9-0.1,1.8-0.5,2.5c-0.3,0.4-0.6,0.8-1,1.2c2.5,1.7,4.8,2.4,6.7,2.6c1.3,0.1,2.5-0.1,3.4-0.6c0.9-0.5,1.5-1.1,1.8-2
			C122.2,186.2,122.3,185.7,122.2,185.1L122.2,185.1z M109.1,178.4c6.6,0.4,13,3.3,18.2,7.2c0.8-0.7,1.7-1.5,2.8-2.5
			c-0.8-1.3-1.2-3.4-0.9-6.2c-1,1.2-2,2.1-3.1,2.7c-2,1.2-4,1.3-5.4,0.6c-1.4-0.7-2.2-2.2-2.4-4.2c-0.1-1.2,0-2.6,0.3-4.1
			c-1.7,2.7-3.7,4.2-5.5,4.6c-0.9,0.2-1.7,0.2-2.4,0c-0.7-0.2-1.3-0.7-1.8-1.4c-0.8-1.2-1-3.1-0.4-5.5c-1,0.6-1.9,1-2.8,1.1
			c-0.2,0-0.4,0-0.6,0c0.9,0.9,1.5,1.9,1.7,2.8c0.2,0.9,0.1,1.8-0.4,2.6c0,0.1-0.1,0.2-0.2,0.2c0,0,0.1,0,0.1,0
			C107.4,177.2,108.3,177.8,109.1,178.4L109.1,178.4z M126.1,202.5C126.1,202.4,126.1,202.4,126.1,202.5c-1.2-0.6-2.5-1.4-3.8-2.6
			c-0.3-0.3-0.3-0.3-0.7-0.2c-1.8,0.5-4.2,0.2-6.9-1.2c1.5,1.9,2,3.8,1.8,5.4c-0.1,0.8-0.5,1.6-1,2.2c2.6,3.2,5.5,4.4,7.7,4.3
			c0.9,0,1.6-0.3,2.3-0.7c0.6-0.4,1.1-0.9,1.5-1.6C127.8,206.4,127,204,126.1,202.5L126.1,202.5z M104.1,214.7
			c0.2-0.1,0.4-0.2,0.6-0.4c0.7-0.6,1.3-1.4,1.5-2.4c0.4-1.7,0.1-3.8-1.2-6.1c2.9,2.1,5.7,2.6,7.8,2.1c0.7-0.2,1.4-0.5,1.9-0.9
			c1.5,2.7,1.5,5.3,0.7,7.3c-0.8,1.8-2.6,3.2-4.5,3.4c-1.9,0.2-4.2-0.6-6.5-2.7c0-0.1-0.1-0.1-0.1-0.1
			C104.2,214.7,104.2,214.7,104.1,214.7L104.1,214.7z M124.5,211c0,0,0,0.1,0,0.1c1.1,1.8,1.5,3.3,1.4,4.6c-0.2,1.6-1.1,2.9-2.1,3.8
			c-1.2,0.9-2.6,1.4-4.4,0.9c-1.5-0.4-3.1-1.5-5-3.4c0.7-0.6,1.3-1.5,1.7-2.4c0.8-1.8,0.9-4.1,0-6.5c2.4,2.4,5,3.3,7.2,3.2
			C123.7,211.2,124.1,211.1,124.5,211L124.5,211z M115.6,203.8c-0.2,1.5-1.7,2.9-3.1,3.2c-2.2,0.6-5.3-0.2-8.5-3.1
			c0-0.1,0-0.1,0.1-0.2c0.4-1.7,0.1-3.8-1.3-6.1c2.9,1.5,5.6,1.7,7.6,1c0.8-0.3,1.5-0.6,2-1.1C115.1,199.6,115.9,201.9,115.6,203.8
			L115.6,203.8z M121.3,188.9c-0.2,0.2-0.5,0.3-0.7,0.5c-1,0.5-2.3,0.8-3.8,0.7c-1.2-0.1-2.6-0.4-4.1-1.1c1.4,1.8,1.8,3.7,1.6,5.3
			c-0.1,0.9-0.5,1.7-1,2.4c3.2,2.2,6.1,2.7,8.1,2.2c0.9-0.2,1.6-0.7,2.1-1.2c0.5-0.6,0.8-1.3,0.9-2.2
			C124.6,193.6,123.7,191.3,121.3,188.9L121.3,188.9z M113.5,194.2c-0.3,1.7-1.7,3.1-3.2,3.7c-2.1,0.7-4.9,0.4-7.9-1.6
			c1.7-0.8,2.9-2.2,2.7-4.1c-0.1-1.4-0.9-3.1-2.6-4.7c2.9,0.9,5.2,0.6,6.9-0.2c0.1,0,0.1-0.1,0.2-0.1c0.4,0.3,0.8,0.5,1.2,0.8
			c0,0,0,0,0,0C112.9,190.1,113.7,192.3,113.5,194.2L113.5,194.2z M104.1,192.2c0.4,6-9.8,3.4-12.9,1.9c0-0.2,0-0.4,0-0.6
			c-0.1-1.5-1-3.2-2.8-4.8c3.7,0.8,6.6,0.5,8.5-0.5c1-0.5,1.7-1.2,2.1-2l0-0.1c0.3,0.2,0.7,0.3,1,0.5c0,0.1,0.1,0.1,0.1,0.2
			C102.8,188.7,104,190.6,104.1,192.2L104.1,192.2z M105.8,177.1c-0.4,0.4-0.9,0.8-1.5,1.1c-1.9,1-4.8,1.3-8.3,0.7
			c2,1.4,3.1,3,3.5,4.5c0.1,0.7,0.1,1.3,0,1.9c4.1,2.2,7.5,2.3,9.5,1.2c0.7-0.4,1.3-0.9,1.6-1.5c0.3-0.6,0.5-1.3,0.4-2
			c-0.1-1-0.6-2.2-1.6-3.3c-1.2-0.3-2.4-0.5-3.7-0.7c-0.9-0.1-0.4,0-1.4-0.3c0.7-0.2,0.7-0.3,1.4-0.3c0.7-0.1,1.5-0.1,2.2-0.1
			c-0.5-0.4-1.1-0.7-1.7-1.1C105.9,177.3,105.8,177.2,105.8,177.1L105.8,177.1z M135.8,147.2c1.3-0.2,2.7-0.8,4.3-1.7
			c-1.2,1.9-1.7,3.5-1.7,4.9c0,0.3,0,0.7,0.1,1c-3.2,3-6.1,4.3-8.2,4.3c-0.1,0-0.2,0-0.3,0c-0.7,0-1.3-0.3-1.8-0.6
			c-0.2-0.2-0.4-0.4-0.5-0.6C130.7,152.1,133.4,149.7,135.8,147.2L135.8,147.2z M127.6,154.5c-0.1,0.1-0.2,0.2-0.3,0.3
			C127.4,154.7,127.5,154.6,127.6,154.5L127.6,154.5z M127,155c-2,1.5-4,3-6.2,4.4c0,0,0.1,0.1,0.1,0.2c0.5,0.4,1.2,0.6,2,0.6
			c1.8,0,4.1-1.1,6.4-3.7c-0.6-0.1-1.2-0.4-1.6-0.7C127.4,155.5,127.2,155.3,127,155L127,155z M120.7,159.5
			c-0.2,0.1-0.4,0.3-0.6,0.4C120.3,159.8,120.5,159.6,120.7,159.5L120.7,159.5z M119.9,160c-0.2,0.1-0.4,0.2-0.5,0.4
			C119.6,160.2,119.8,160.1,119.9,160L119.9,160z M119.4,160.4c-2.3,2.5-4.4,3.7-6.1,3.8c0,0-0.1,0-0.1,0
			C115.3,162.9,117.4,161.7,119.4,160.4L119.4,160.4z M111.9,164.9c-2.3,1.3-4.7,2.6-7,3.8c-0.5,0.2-0.9,0.5-1.4,0.7
			c0.1,0,0.1,0.1,0.2,0.1c0.6,0.3,1.3,0.5,2,0.4C107.5,169.8,109.7,168.3,111.9,164.9L111.9,164.9z M103.4,169.5L103.4,169.5
			L103.4,169.5L103.4,169.5z M103.3,169.6L103.3,169.6L103.3,169.6L103.3,169.6z M130.7,182.6c4.8-4.5,11.3-11.8,14.2-20.5
			c0.3-0.8,0.5-1.7,0.8-2.6c0.3,3.6-0.1,7.8-2.2,11.4c-1.1,1.8-2.2,3.5-3.5,5.1c-1.6,6.7-3.5,12.9-5.6,18.5c0.8,1.1,1.4,2.3,2.1,3.4
			c1.4,2.4,2.7,4.9,3.8,7.5c1.1,2.5,3,6.8,3.9,10.9c0.8-2.7,1.5-5.4,2.3-8c3.2-10.8,7.9-22.2,10.3-33c3.7-16.3,3.6-28.9-2.7-44.4
			c1.2,2.2,2.2,4.5,3,6.7c3.2,0.5,6.6,1,9.9,1.3c4,0.4,8.1,0.6,12.1,0.4c1.6-0.1,4.1-0.5,5.6-0.8c0.2,0,1.2-0.2,1.4-0.1
			c-0.1-1.2-0.1-2.3-0.1-3.5c1.3,12.8,5.6,19.5,11.4,30.7c4.6,8.9,8.4,14.2,13.9,22.2c18.6,27.5,31.1,55.1,16.1,87
			c8.4-12.8,11.3-29.1,6.9-46.9c-1.5-6-3.8-11.8-6.7-17.4c-4.5-8.7-10.1-16.9-15.6-24.7c-4.3-6.2-8.5-12.5-11.6-20.2
			c-4.8-7.7-8.9-16.7-10.3-25.6c3.5,7.2,5.3,12.8,9.2,19.2c1.4,2.2,3.7,4.9,5.6,7.3c1.8,1,4.1,2.1,6.7,3.1c0.7-0.4,1.2-0.8,1.5-1.2
			c0.5-0.6,0.6-1.3,0.6-2c-0.1-0.7-0.4-1.5-1-2.2c-1.6-2-5.2-3.8-10.5-4.3c-0.2,0-0.4-0.2-0.4-0.4c0-0.2,0.2-0.4,0.4-0.4
			c1,0.1,2,0.2,2.9,0.4c0,0,0.1,0,0.1,0c3.1-0.3,4.9-1.5,5.6-2.9c0.3-0.6,0.4-1.3,0.3-2c-0.1-0.7-0.5-1.4-1.1-2.1
			c-1.7-2-5.4-3.5-10.7-3.1c-0.2,0-0.4-0.2-0.4-0.4c0-0.2,0.2-0.4,0.4-0.4c5.6-0.5,9.5,1.2,11.4,3.4c0.3,0.4,0.6,0.8,0.8,1.2
			c0.3,0.6,0.6,0.3,1.5,0.4c3-0.6,4.8-1.8,5.6-3.2c0.1-0.1,0.1-0.3,0.2-0.4c0-0.1,0-0.1,0-0.2c0-0.2,0.1-0.3,0.2-0.4
			c0-0.2,0-0.4,0-0.5c-8,0.6-12.4-0.8-16.9-3.2c-5.6-3-12.6-11.9-14.1-13.8c-0.8,0.3-1.8,0.4-3,0.4c-7.5-0.1-20.2-3.1-24.9-4
			c-5-1-11.4-2-16.2-3.4c12.5,0.7,38.8,6.2,42.7,5.3c2-0.4,4.5-2.8,6.9-5.7c-3.1,2.1-7,3.1-10.9,2.6c-6.6-0.8-11.7-4.3-15.1-10
			c6.1,5.8,13.3,10.2,22.1,7.4c5.8-1.9,7.9-5.9,10.4-11l-0.4,2c0.1-0.2,0.3-0.5,0.4-0.7c-0.2,0.6-0.4,1.2-0.6,1.8l0,0
			c-0.2,0.7-0.5,1.4-0.9,2.1c-0.8,1.8-1.9,3.7-3,5.5c5.4-4.2,11.8-9.9,14.6-14.5c1.1-1.8,3.1-6.8,4.3-11.1c-0.1-0.1-0.1-0.2-0.2-0.3
			c-0.4-0.7-0.8-1.5-1.1-2.3l-0.4-1c-0.9,0.9-1.9,2-3.1,3.3c-1.3,1.4-5.5,7.2-7.9,6.4c-1.4-0.5-2.8-1-4.1-1.3
			c-2.6,8.4-2,13.6-6.7,16.6c-4.9,3.1-11.5,1.5-16.4-2.6c-3.6-3-6.1-9.9-11.4-15.2c-0.1,0.1-0.1,0.3-0.2,0.4c-0.7,1.3-2,3.5-3.7,3.4
			c-1.6-0.1-2.9-2.4-3.6-3.7c-0.6-1.1-1.2-2.2-1.7-3.4l-0.6-1.2c-0.1,0-0.3-0.1-0.4-0.1c-6.2-1.6-9.8-7.6-7.4-12.5
			c-1.2-0.7-4.6-0.4-4.1-0.6c0.3-0.1,1.5-1.3,3-1.8c1.3-0.4,2.8-0.6,3.6-0.6c0.3-0.2,0.6-0.4,0.9-0.6c-0.1,0.2-0.3,0.4-0.4,0.6
			c0.1,0,0.1,0,0.1,0s-0.1,0.1-0.3,0.3c-2.5,3.7-3.6,7.8,0.5,11.3c2,1.7,6,2.5,9.9,2.9c0.9,0,1.7,0.1,2.6,0.3c1.9,0.2,3.6,0.3,5,0.5
			c12.9,1.6,23.7,0.1,36.2,5.6c1.6-0.8,8-7.5,13.2-11c0,0,0-0.1,0-0.1c0.8-0.9,3.5-1.8,4.7-2.8c7.7-6.2,6.4-18.2-0.9-22.3
			c2.5,2.2,2.8,7-0.5,9.6c1-2.9,1.3-4.6,0.9-6.2c-1-3.5-5-4.4-9.9,0.5c1.3-2.7,3.5-5.2,6.7-5c-2.3-0.5-5.1-0.4-8.2,0.7
			c0,0-1.8-10-7.1-21c-0.4-0.3-0.8-0.6-1.2-0.9c-2.9-1.8-5.5-0.9-7.5,1.5c0.1,0,0.3-0.1,0.4-0.1c0.4-0.1,0.8-0.1,1.2-0.1
			c2.6,0,4.7,1.4,6.3,3.4c1.8,2.3,2.9,5.5,3.1,8.4c0.1,1.5,0,3-0.3,4.5c-0.3,1.4-0.8,2.7-1.5,3.9c-1.2,2-2.3,2-4,2
			c-0.4,0-0.8,0-1.3,0c-0.1,0-0.3,0-0.4,0c-0.1,0-0.3,0-0.4,0.1c-2.4,0.4-4,0-5.2-0.8c-0.3-0.1-0.9-0.6-2-1.4l-0.4-3
			c-0.1-1.4-0.2-2.9-0.2-4.5l0-0.2c0-0.4,0-0.8-0.1-1.3c0-0.6,0.1-1.8,0.4-3.1c0.1-1.2,0.3-2.3,0.6-3.5c1.4-5.8,4.6-10.3,9.4-9.2
			c0.4,0.1,0.9,0.2,1.3,0.4c-2-3.6-4.3-7.2-7.1-10.4c-1.3-0.1-3.5-0.7-5.6-0.8c-6.8-0.2-5.3-1.8-4.6-2.7c1.2-1.6,2.6-2.4,3.9-2.6
			c-0.8-0.6-1.6-1.2-2.5-1.8c0,0.3-0.1,0.5-0.2,0.7c-0.3,0.6-0.8,1-1.5,1.2c-0.6,0.2-1.4,0.2-2.1,0.1c-1.4-0.2-2.9-0.8-4.3-1.7
			c0.3,1.3,0.2,2.2-0.1,2.9c-0.3,0.6-0.9,1-1.5,1.2l-0.1,0c0.6,1.5,0.9,3,0.7,4.1c-0.1,0.6-0.3,1.1-0.7,1.4c3,4.8,4.8,10.4,5.8,17.3
			c0.7,4.7,0.8,8.3,0.5,13.1c-1.1-12.1-2.4-21.9-7.6-29.8c-0.3,0-0.6,0-1,0c-1.6-0.2-3.9-1.5-7-4.2c-0.4,0.2-0.9,0.3-1.4,0.3
			c-0.8,0-1.8-0.2-2.7-0.6c-1.8-0.8-3.7-2.3-5.1-4.2c-0.3,0.2-0.6,0.3-1,0.4c-1.4,0.3-3.3,0-5-0.9c-0.9-0.5-1.8-1.2-2.5-2.1
			c0.1,0.8,0.1,1.5-0.2,2c-0.3,0.6-0.8,1-1.5,1.2c-0.6,0.2-1.4,0.2-2.1,0.1c-1.9-0.2-4.1-1.3-5.8-2.9c-2.3,4.2-8.4,4.8-13.3,2.7
			c0.8,0,1.5,0.1,2.2,0.1c-0.5-0.5-0.8-1.3-1-2.1c-4.1,2.5-7.6,5.6-10.4,9.2c-5.2,6.6-7.7,14.5-9,24c-2.1,15.3,1.3,12.5-5.7,27.8
			c-1,2.2-3.3,5.7-3.6,9.7c-1.9,22,37.4,26.6,43.6,32.5c1.4,1.3,2.5,2.5,3.3,3.9c0.5,1.6,0.8,4,0.2,5.5c-1.2,3.3-3.4,6.7-6.4,10
			c1.3-0.4,2.9-1.2,4.5-2.3c0,0,0.1,0,0.1-0.1c0.3-0.2,0.5-0.4,0.8-0.6c0.2-0.1,0.4-0.1,0.6,0.1c0.1,0.2,0.1,0.4-0.1,0.6
			c-0.3,0.2-0.5,0.4-0.8,0.6c-1.9,2.4-2.7,4.5-2.7,6c0,0.2,0,0.4,0,0.6c0,0,0,0,0.1,0.1c0.1,0.1,0.1,0.3,0.1,0.5
			c0.1,0.3,0.2,0.5,0.4,0.7c0.3,0.5,0.8,0.8,1.5,1c1.1,0.3,2.6,0,4.4-0.8c0.2-0.1,0.5,0,0.6,0.2c0.1,0.2,0,0.5-0.2,0.6
			c-2,0.9-3.7,1.2-5,0.9c-0.8-0.2-1.5-0.6-2-1.3c-0.1-0.2-0.2-0.4-0.3-0.6c-3.3,3-6.2,4.3-8.4,4.3c-0.8,1.9-2.4,7.5,0.4,8.9
			c0.6,0.3,1.2,0.3,2,0.2c2-0.4,4.4-2.3,6.9-6.2c0.1-0.2,0.4-0.3,0.6-0.1c0.2,0.1,0.3,0.4,0.1,0.6c-2.5,4.1-5.2,6.1-7.4,6.6
			c-1,0.2-1.8,0.1-2.5-0.3c-0.4-0.2-0.7-0.5-1-0.8c-1.3,3.1-1.4,5.6-0.7,7.1c2.3,5.3,8.6-1.7,10.1-4.6c0.1-0.2,0.4-0.3,0.6-0.1
			c0.2,0.1,0.3,0.4,0.1,0.6c-2.5,4.1-5.2,6.1-7.4,6.6c-0.5,0.1-0.9,0.1-1.3,0.1c-0.1,0.1-0.2,0.3-0.3,0.4
			C129.6,178.7,129.9,181.2,130.7,182.6L130.7,182.6L130.7,182.6z M109.7,168.9c1-0.9,2-2,3-3.5c0.1-0.1,0.1-0.3,0-0.4
			c0.2,0,0.5,0,0.7,0c1.5-0.1,3.4-0.9,5.3-2.7c-1.1,2.3-1.2,4.3-0.7,5.7c0.2,0.6,0.6,1.1,1,1.6c-1.8,3.8-4.2,5.8-6.2,6.3
			c-0.7,0.2-1.4,0.2-1.9,0c-0.6-0.2-1-0.6-1.4-1.1C108.8,173.6,108.7,171.6,109.7,168.9C109.6,168.9,109.7,168.9,109.7,168.9
			L109.7,168.9z M127.9,166.7c-0.8,2.6-0.8,4.7-0.1,6.1c0.4,0.9,0.9,1.5,1.7,1.8c0.1,0.1,0.2,0.1,0.3,0.2c0,0.1-0.1,0.1-0.1,0.2
			c0,0,0,0.1,0,0.1c-1.2,1.8-2.5,3.1-3.9,3.9c-1.8,1-3.5,1.2-4.7,0.6c-1.1-0.6-1.8-1.8-1.9-3.5c-0.2-1.6,0.1-3.7,0.8-5.9
			c0.6,0.3,1.3,0.4,2,0.4C123.7,170.3,125.8,169.2,127.9,166.7L127.9,166.7z M121.9,169.7c-1.3,0.1-2.6-0.8-3.1-2
			c-0.6-1.7-0.2-4.3,1.9-7.2c0.6,0.3,1.4,0.5,2.2,0.5c1.7,0,3.8-0.9,5.9-2.9c-0.8,2.6-0.8,4.8-0.2,6.2
			C126.3,167.9,123.8,169.5,121.9,169.7L121.9,169.7z M223.4,280.4c-1.5,0.6-3.1,1.3-4.7,1.9c-2,0.7-3.9,1.4-6,1.9
			c-2.5,0.7-5,1.3-7.6,1.8c-4.4,0.9-9,1.5-13.5,2c-4.8,0.5-9.6,0.7-14.4,0.8c-4.5,0.1-9,0-13.5-0.3c-3.7-0.2-10.1-1-14.3-1.6
			c-0.9-4.9-2.8-10-4.9-14.6c10.5,1.1,26.5,2.4,36.8,2.3c16.3-0.3,32.7-2.4,48.4-6.8c-0.6,2.1-1.4,4.3-2.2,6.5l-0.7,1.7
			C225.8,277.4,224.6,278.9,223.4,280.4L223.4,280.4z M149.6,287.2c0.5,3.1,0.6,6.2,0,9.1c-0.1,0.4-0.2,0.7-0.3,1.1
			c4,1.2,19.3,5.3,35.2,3c15.9-2.3,28.9-9.1,37.9-18.9c-11.6,4.5-24.5,6.7-36.9,7.4C174.6,289.6,160.5,288.7,149.6,287.2
			L149.6,287.2z M230,266.8c-1.2,0.3-2.5,0.7-3.7,1c-4.4,1.2-8.9,2.3-13.4,3.1c-10.8,1.9-22,2.9-33,3.1c-9.8,0.2-25.5-1.1-35.5-2.3
			c-1.3-2.8-2.7-5.5-4-7.8c3,9.6,9.4,21.9,6.9,32c-2.1,8.4-16.6,14.9-24,17.8c3.1,0.1,5.8-0.5,8.2-1.5c-0.4,0.9-0.6,1.6-0.6,2
			c-0.1,1.2,2,5.1,2.5,10c0.3,2.8-1,3.5-3.6,3.7c-1.8,0.1-5.5,0.2-10.1,0.3c0.4-5.7-1.7-8.3-3.3-9.4c-0.6-0.4-1.3-0.6-2-0.5
			c-1.9,0.1-4,2.2-5.3,3.5c-0.2,0.2-0.3,0.3-0.5,0.5c0.6-2.2,1.7-4.3,3.1-6.2c-3.7,0.8-5.4,6.1-5.8,10.2c-0.2,0.6-0.2,1.3-0.1,1.9
			l0,0.1c-2.1,0-4.2-0.1-6.2-0.1c0-0.4,0-1,0-1.7c-0.1-4.5-1.9-6.7-3.4-7.6c-0.6-0.4-1.3-0.6-2-0.5c-1.2,0.1-3.1,1.4-4.7,3.1
			c1-2.8,2.5-4.9,6.1-7.2c-6.4-0.2-8.8,8.2-10.3,13.3c-0.7-0.1-1.4-0.1-2-0.2c0.8-6.5-1.5-9.4-3.2-10.5c-0.1-0.1-0.2-0.1-0.2-0.1
			c2.2-2.8,5.2-5.3,9.2-6.1c1.1-0.2,2.3-0.4,3.3-0.4c0.1,0,0.3,0.1,0.5,0.1c4-0.2,6.9,0,9.4,0.4c0.8,0.1,1.2,0.3,1.2,0.3
			c-0.1,0-0.1-0.1-0.2-0.1c2.9,0.6,5.4,1.4,8.7,2.3c-3.9-2.9-8.4-4.3-12.5-4.9c-3.1-2.8-6.1-7-8.6-11.8c0.7,0.2,1.3,0.2,1.9,0.1
			c0.5-0.1,1.1-0.3,1.6-0.5c0.6,2.6,1.8,4.1,3.3,4.7c0.9,0.4,1.8,0.4,2.8,0.2c0.4-0.1,0.9-0.3,1.3-0.5c0,0,0,0,0,0.1
			c0.6,3.8,2.3,6.2,4.2,7.3c1,0.5,2,0.7,3.1,0.6c1-0.1,2.1-0.6,3-1.4c1.7-1.5,3.2-4.1,3.7-7.8c1.3,3.3,3.2,5.4,5.1,6.1
			c1,0.4,2,0.5,3,0.2c1-0.2,1.8-0.8,2.6-1.7c1.5-1.9,2.4-5.2,1.9-9.9c0.5,0.1,0.9,0.1,1.4,0c1.1-0.1,2.1-0.6,2.9-1.4
			c1.6-1.4,2.7-3.9,2.9-7.3c0-0.2-0.2-0.4-0.4-0.4c-0.2,0-0.4,0.2-0.4,0.4c-0.2,3.2-1.2,5.4-2.6,6.7c-0.7,0.7-1.6,1.1-2.5,1.2
			c-0.5,0.1-0.9,0-1.4,0c-0.1-0.1-0.2-0.2-0.4-0.2c-0.1,0-0.1,0-0.1,0.1c-0.3-0.1-0.5-0.2-0.7-0.3c-1.7-0.9-3.2-2.8-4.3-5.8
			c0-0.2,0-0.4,0-0.6c0.4-0.2,0.8-0.4,1.2-0.7c2.3-1.7,4.1-5.4,4.5-10.9c0-0.2-0.2-0.4-0.4-0.4c-0.2,0-0.4,0.2-0.4,0.4
			c-0.3,5.2-2.1,8.6-4.2,10.3c-0.3,0.2-0.6,0.4-0.9,0.6c-0.1,0-0.1-0.1-0.2-0.1c-0.2,0-0.4,0.1-0.4,0.3c-0.3,0.1-0.7,0.2-1,0.2
			c-0.9,0.1-1.7-0.2-2.5-0.7c-1.6-1-2.8-3.3-3.3-6.7c0.3,0.1,0.6,0.1,0.9,0.1c1,0,2.1-0.2,3-0.9c1.9-1.2,3.6-3.7,4.5-7.3
			c0,0,0,0,0-0.1c1,0.2,2,0.1,3-0.3c1.8-0.7,3.6-2.5,4.9-5.4c0.1-0.2,0-0.5-0.2-0.5c-0.2-0.1-0.5,0-0.5,0.2
			c-1.2,2.7-2.8,4.3-4.5,4.9c-0.9,0.4-1.9,0.5-2.7,0.2c-0.9-0.2-1.7-0.7-2.4-1.5c-1.3-1.4-2.1-3.8-2.1-6.9c0.7,0.1,1.5,0,2.4-0.3
			c2.2-0.8,4.7-2.9,6.7-6.6c0.1-0.2,0-0.5-0.2-0.6c-0.2-0.1-0.5,0-0.6,0.2c-1.9,3.5-4.2,5.5-6.2,6.2c-0.9,0.3-1.7,0.3-2.4,0.1
			c-0.3-0.1-0.5-0.2-0.8-0.4c0-0.2-0.1-0.3-0.3-0.4c-0.1,0-0.1,0-0.2,0c-0.2-0.2-0.4-0.4-0.5-0.7c-0.9-1.4-1.2-3.8-0.6-7
			c0.2-0.3,0.4-0.7,0.6-1.1c0.1-0.1,0.1-0.2,0-0.3c0.7,0,1.4-0.1,2.1-0.4c1.5-0.6,3.1-1.7,4.6-3.6c4.5-1.5,9.4-6.8,12-9.6
			c2-2.2,3.8-4.5,5.6-6.8c0.2-0.2,0.3-0.4,0.5-0.7c-1.2,6.3-2,12.6-1.8,18.4c0.6-6.6,1.7-13,3.1-19.2c16.1,2.3,32.4,3.1,48.6,1.6
			c12.7-1.1,25.2-3.6,37.3-7.4c1.7,4.6,2.9,9.3,3.7,14.1c-7.5,2-15.2,3.5-22.9,4.7c-8.3,1.3-16.8,2.2-25.2,2.7
			c-7.6,0.5-15.2,0.6-22.7,0.4c-7.1-0.2-14.3-0.6-21.4-1.5c0,0.2,0,0.3,0,0.5c17.1,1.6,34.1,2.1,51.2,0.6c13.9-1.2,27.6-3.5,41.1-7
			c0.6,4.2,0.9,8.4,0.7,12.8c-0.1,0-0.3,0.1-0.4,0.1c-7.6,2.4-15.4,4.2-23.2,5.7c-8.2,1.5-16.4,2.5-24.7,3
			c-7.3,0.5-14.6,0.6-21.9,0.4c-6.7-0.2-13.4-0.7-20.1-1.5c0.1,0.2,0.1,0.3,0.2,0.5c30.6,3.3,60.7,1.6,90.1-7.7
			C232.5,255.6,231.6,261.1,230,266.8L230,266.8z M228.2,222.1c-1.7-4.7-3.9-9.4-6.4-14.1c-10.9,3.6-22.1,6-33.6,7.1
			c-14,1.3-27.9,0.6-41.8-1.7c-0.6,1.9-1.1,3.8-1.7,5.7c0.2,2.1,0.1,4-0.6,5.4c-0.4,0.8-0.9,1.6-1.4,2.3c-0.1,0.4-0.2,0.7-0.2,1.1
			c6.4,1,12.8,1.7,19.3,2c6.9,0.4,13.9,0.4,20.9,0C198,229.2,213.6,226.7,228.2,222.1L228.2,222.1z M221.6,207.6
			c-0.3,0.1-0.6,0.2-0.9,0.3c-12.8,4.1-26.3,6.5-39.7,7.2c-11.5,0.6-23.1-0.1-34.4-2.1c1.9-6.4,4.1-12.7,6.4-19.1
			c1.2-3.3,2.3-6.7,3.3-10.1l0,0c8.7,0.4,17.5,0.6,26.1,0.1c7.4-0.4,15.4-1.5,22.8-2.7c1.6,2.4,3.2,4.9,5,7.7
			c1.1,1.6,2.1,3.3,3.1,4.9c-0.8,0.3-1.7,0.5-2.5,0.7c-10.3,2.7-20.9,4.4-31.5,5.1c-9.3,0.7-18.8,0.6-28.1-0.4
			c-0.1,0.2-0.1,0.3-0.2,0.5c11.3,1,22.6,1.1,33.9,0c9.7-1,19.2-2.8,28.6-5.4C216.5,198.7,219.2,203.2,221.6,207.6L221.6,207.6z
			 M204.8,180.6c-0.2,0-0.3,0.1-0.5,0.1c-8.3,1.8-17.7,2.5-26.2,2.9c-7.2,0.3-14.6,0.2-21.8-0.3c1.5-5.3,2.7-10.8,3.4-16.3
			c6.2,0.6,12.6,0.9,18.8,0.6c5.6-0.3,12.1-1.1,17.7-1.9l0.2,0.4C199.4,171.9,201.9,176.1,204.8,180.6L204.8,180.6z M196,165.1
			c-0.3,0-0.6,0.1-0.8,0.2c-1.2,0.2-3.3,0.7-4.5,0.8c-10.2,1.3-20.6,1.7-30.8,0.4c0.5-4.5,0.7-8.9,0.5-13.4
			c4.9,0.4,9.7,0.6,14.6,0.3c4.7-0.3,9.9-1,14.6-2.1C191.3,156.1,193.7,160.6,196,165.1L196,165.1z M157.4,138.3
			c0.3,0,0.8,0.1,1.1,0.1c4.5,0.7,9.1,1.3,13.7,1.4c4.4,0.1,9.7-0.3,14.1-0.8c0.4,4.1,1.5,8,3,11.8c-0.5,0-1.4,0.2-1.5,0.2
			c-1.3,0.4-2.6,0.7-4,0.9c-2.5,0.4-5,0.8-7.5,1c-2.1,0.2-4.1,0.2-6.2,0.2c-3.2-0.1-6.5-0.4-9.7-0.6
			C159.9,147.7,159,142.9,157.4,138.3L157.4,138.3z M265.7,127.6c0.1,0.2,0.2,0.4,0.4,0.5c-0.6-1.6-0.8-3.3-0.6-5.3
			c0.2-2.5,1.2-4.2,2.6-5.3c1.7-1.4,4-1.9,6-1.9c1.8,0,3.4,0.5,4.9,1.3c1.5,0.9,2.9,2.1,4.4,3.8c1.2,0.1,10.9,1.1,10.9,8.3h0
			c0,0.7-0.1,1.4-0.3,2c-0.5,2-1.8,3.5-3.4,4.7c-1.7,1.6-3.8,2.5-6.6,3C275.7,140,268.7,135.2,265.7,127.6L265.7,127.6z
			 M289.1,135.9c1.3-0.9,2.5-2,3.7-3.6c0.2-0.4,0.4-0.9,0.5-1.4c0.2-0.6,0.2-1.2,0.2-1.9h0c0-7-10.4-7.7-10.4-7.7l-0.1,0l-0.1-0.1
			c-1.5-1.7-2.9-2.9-4.4-3.8c-1.4-0.8-2.9-1.2-4.6-1.3c-1.9,0-4,0.4-5.6,1.8c-1.2,1-2.1,2.6-2.3,4.9c-0.4,3.7,0.9,6.5,2.8,8.7
			c2.7,3,6.8,4.8,10,5.6c1,0.3,2,0.4,3.2,0.4C284.4,137.6,286.9,137,289.1,135.9L289.1,135.9L289.1,135.9z M231.5,309.1
			c-2.6,0.8-5.3,1.9-8.4,3.2c-2.1,0.9-1.2,0.6-2.6,1c0.8-1,0.5-0.7,2.1-1.8c4.6-3.1,8.4-4.6,12.7-5.5c1.3-1,2.8-2.2,4.3-3.6
			c-0.6-0.3-1.3-0.7-1.8-1.3c-1.5-1.5-2.5-4-2.7-7.5c-1.7,3.5-3.9,5.5-6,6.2c-1,0.3-2,0.4-3,0.1c-0.9-0.3-1.7-0.9-2.3-1.9
			c-1.3-1.9-1.8-5.2-0.8-9.6c-0.8,0.1-1.5,0-2.2-0.2c-0.4-0.2-0.8-0.4-1.2-0.6c-5.7,5-12.3,8.8-19.4,11.4c1.3,2.3,1.4,5.5-0.2,9.7
			c-3.8,10-2.7,14.2,0.6,16.1c1.3,0.7,10.9,0.9,22.2,0.8c-0.2-5.4,1.6-7.9,3-9c0.5-0.4,1.2-0.6,1.8-0.5c1.7,0.1,3.6,2.2,4.7,3.5
			c1,1.1,2.5,2.9,2.9,4.7c0.3-4.3,0.1-8.3-3.6-10.8c0.4-0.2,0.4-0.2,0.9-0.2c4.3,0.4,5.1,8.4,5.3,12.1c1.1,0,2.2,0,3.3-0.1
			c-0.1-5.2,1.3-7.7,2.5-8.7c0.5-0.4,1-0.6,1.5-0.5c1.4,0.1,3,2.2,3.9,3.5c0.9,1.3,2.5,3.5,2.5,5.5l0.4,0c0.3-6.6,1-12.5-6.6-14.6
			l-1.7-0.5c10.1-1.5,10.8,7.8,11,15c0.7,0,1.3,0,2-0.1c-0.2-5.4,1.3-7.9,2.5-9c0.5-0.4,1-0.6,1.5-0.5c0.5,0,1,0.3,1.4,0.7
			c-0.5-2.3-1.5-4.6-3.4-6.6C253.7,304.2,235.1,308.3,231.5,309.1L231.5,309.1z M107.4,226c-0.3,0.1-0.6,0.3-0.9,0.4
			c-1.2,0.6-2.3,1.5-3,2.6c-1.2-2.4-2-5.1-1.5-5.6c0.4-0.3,2.2,0.4,4.1,1.3C106.4,225.2,106.9,225.6,107.4,226L107.4,226z
			 M288.5,145.7c-3.3,1.3-7.3,1.5-10.4,0.8c14.4-4.3,11.1-1.5,19-14.6c1-1.6,2.1-2.6,3.2-3.4c1.2-0.5,3.1-1.3,3.7-2.8
			c0.4-0.9,0.4-2.1,0.2-3.2c-0.1-0.8-0.3-1.4-0.7-1.9c-0.3-0.5-0.6-0.8-0.9-1c-1.4-0.7-4.8,0.2-6.1,1.1c-0.4,0.2-0.8,0.4-1.2,0.5
			c0.3,0.5,0.5,1.1,0.7,1.6l0.7,2.9c-1.9-3.2-3-5.1-5.9-7.7c-6.1-5.4-10.4-6.6-18-6.5c2.1-0.7,4.3-1,6.5-0.8
			c0.2-0.6,0.3-1.4,0.5-2.2l0,0c0.2-1.4,0.3-3.8-0.4-4.6c-0.3-0.3-0.8-0.6-1.3-0.9c-1.2-0.7-2.7-0.7-4.2,0l0,0
			c-1.2,0.4-1.9,1-2.8,2.3c0,0,0,0.1,0,0.1l0,0.1c-2.5,3.5-3.1,7.8-3.1,7.8l-5,5.1c0,0-0.3-1-0.7-2.2l0,0c-1.3-5.5-4-5.8-5.9-5
			c-0.1,0-0.1,0.1-0.2,0.1c-0.4,0.2-0.9,0.5-1.2,0.9c-0.7,0.9-1.1,2.1-1.1,3.5c-0.1,0.8-0.1,1.7-0.1,2.8c0.1,3.7,0.3,6.4,0.7,8.4
			c0.4,1.6,1,3,1.8,4.4l0,0c0,0,0.1,0.1,0.1,0.1c1.6,2.8,4,5,6.8,7.3l-2.2-0.6c-2.4-1.1-4.3-2.7-5.7-4.6c-0.3,0.3-0.6,0.7-1,1.1l0,0
			c-0.5,1-1.3,2.1-2.3,3.2c1.6-0.4,2.9-0.5,4.1-0.3c2.1,0.3,3.5,1.5,4.3,3c0.8,1.4,1.2,3.2,0.6,4.9c-0.4,1.4-1.4,2.8-3.3,4
			c0.2,0.2,0.3,0.4,0.5,0.6c0.5,0.8,0.8,1.6,0.8,2.5c0,0.1,0,0.3,0,0.4c3.2-1.4,6-1.1,7.9,0.1c0.8,0.5,1.5,1.2,1.9,2
			c0.4,0.8,0.6,1.8,0.4,2.7c-0.3,2.4-2.3,5.1-6.8,7.2c-0.1,0.1-0.3,0-0.4,0c-0.4,1.2-1.1,2.3-2.1,3.3
			C273.7,162.2,282.8,153.3,288.5,145.7L288.5,145.7z M283.4,111.4c3.4,1.1,6.6,3.1,9.1,5.7c0.2-0.6,0.5-1.4,0.7-2.3
			c0-0.2,0.1-0.3,0.2-0.6c1.1-4.4-0.5-6.2-2.1-7c-1-0.5-2-0.7-3-0.5c-1.4,0.1-1.6,0.6-3.7,3.3c0,0,0,0,0,0
			C284,110.7,283.7,111.1,283.4,111.4L283.4,111.4z M211.8,169.7c0.1,0.1,0.3,0.1,0.4,0.2C212.1,169.8,211.9,169.8,211.8,169.7
			L211.8,169.7z M212.8,170.1c0.5-0.3,0.9-0.7,1.2-1.1c0.6-0.8,0.8-1.6,0.8-2.5c0-0.1,0-0.2,0-0.2c5.2,0.6,8.8,2.4,10.4,4.5
			c0.6,0.7,0.9,1.5,1,2.2c0,0.2,0,0.3,0,0.5C221.1,172.7,216.6,171.5,212.8,170.1L212.8,170.1z M226.3,173.4c0.2,0,0.4,0.1,0.7,0.1
			C226.8,173.5,226.6,173.4,226.3,173.4L226.3,173.4z M227,173.5c0-0.2,0-0.4,0-0.7c0-0.1,0-0.2-0.1-0.4c0,0,0,0,0.1,0
			c3.9-0.2,6.3-1.7,7.4-3.5c0.4-0.8,0.6-1.6,0.5-2.5c-0.1-0.5-0.2-1.1-0.5-1.6c4.3-0.7,7.4,0.1,9.3,1.6c0.7,0.6,1.3,1.3,1.5,2.1
			c0.3,0.8,0.3,1.6,0,2.4c-0.2,0.7-0.7,1.4-1.4,2.1C237.7,174,232.1,174.1,227,173.5L227,173.5z M243.8,173c0.4-0.1,0.8-0.1,1.2-0.2
			C244.6,172.9,244.2,173,243.8,173L243.8,173z M245.1,172.8c2.5-0.5,5.1-1.1,7.8-2c0.7-0.2,1.4-0.5,2.1-0.7c-1.9-1.1-4.9-1.7-8.8-1
			c0.1,0.7,0,1.4-0.2,2.1C245.8,171.7,245.5,172.3,245.1,172.8L245.1,172.8z M255.4,170c0.2-0.1,0.4-0.1,0.5-0.2
			C255.7,169.8,255.6,169.9,255.4,170L255.4,170z M255.9,169.8c-2.1-1.5-5.5-2.2-10-1.5l0,0l0,0c3.3-1.3,5.2-3.2,5.8-5.1
			c0.3-1,0.3-2,0-2.9c-0.2-0.6-0.5-1.1-0.9-1.6c0,0,0,0,0,0c3.9-1.2,6.8-0.8,8.5,0.5c0.8,0.6,1.3,1.3,1.6,2.1
			c0.3,0.8,0.4,1.7,0.3,2.6c-0.3,2.1-2,4.2-5.1,5.7C256.2,169.7,256,169.7,255.9,169.8L255.9,169.8z M256.7,169.5
			c0.3-0.1,0.5-0.2,0.8-0.3C257.2,169.3,256.9,169.4,256.7,169.5L256.7,169.5z M258.3,168.8c0.1,0,0.2-0.1,0.3-0.1L258.3,168.8
			L258.3,168.8z M252.3,136.2c-0.1,0.1-0.1,0.1-0.2,0.2L252.3,136.2L252.3,136.2z M252.1,136.4c-0.1,0.1-0.1,0.1-0.2,0.2
			C252,136.5,252.1,136.4,252.1,136.4L252.1,136.4z M251.8,136.7c-0.1,0.1-0.1,0.1-0.2,0.2L251.8,136.7L251.8,136.7z M251.4,137
			c-0.1,0-0.1,0.1-0.2,0.1C251.3,137.1,251.3,137,251.4,137L251.4,137z M251,137.3c-0.1,0.1-0.3,0.3-0.4,0.4
			c-0.1,0.1-0.1,0.2-0.1,0.3c-0.2,0.1-0.5,0.2-0.7,0.3C250.2,138,250.6,137.6,251,137.3L251,137.3z M249.3,138.6
			c-0.1,0.1-0.1,0.1-0.2,0.2L249.3,138.6L249.3,138.6z M248.8,139c0,0,0,0.1,0,0.1c0,0.1,0.1,0.2,0.2,0.2c0.4,0.8,0.7,1.8,0.7,2.8
			c0,2.1-1.1,4.4-3.4,6.2c-0.3-0.6-0.8-1.1-1.3-1.6c-1.7-1.4-4.5-2.1-8-1.4C241.5,143.6,245.6,141.3,248.8,139L248.8,139z
			 M236.9,145.4c-0.2,0.1-0.3,0.1-0.5,0.2C236.6,145.5,236.8,145.5,236.9,145.4L236.9,145.4z M236.3,145.6c-0.2,0.1-0.3,0.1-0.5,0.2
			C235.9,145.8,236.1,145.7,236.3,145.6L236.3,145.6z M235.6,145.9c-0.1,0.1-0.3,0.1-0.4,0.1C235.3,146,235.4,145.9,235.6,145.9
			L235.6,145.9z M234.9,146.1c-0.1,0-0.3,0.1-0.4,0.1c0,0.1,0,0.2,0,0.3c0,0,0,0.1,0.1,0.1c0,0,0,0.1,0,0.1
			c-0.3,1.8-1.7,3.7-4.5,5.3c-2-1.6-5.4-2.8-10-2.7c0-0.2,0-0.3,0-0.5c2.9-0.3,6.2-0.8,10.1-1.5
			C231.7,147.1,233.3,146.6,234.9,146.1L234.9,146.1z M220,148.9c-0.1,0-0.3,0-0.4,0C219.7,148.9,219.8,148.9,220,148.9L220,148.9z
			 M258.8,153.8c3.1-1.5,5.8-1.3,7.6-0.2c0.7,0.4,1.2,1,1.6,1.7c0.3,0.7,0.5,1.5,0.4,2.3c-0.3,2.1-2.1,4.5-6.2,6.4l0,0
			c0.2-1.1,0.1-2.1-0.3-3c-0.4-0.9-1-1.8-1.9-2.4c-0.9-0.7-2.1-1.2-3.5-1.3C257.7,156.2,258.5,155,258.8,153.8L258.8,153.8z
			 M258.1,152.4c0.1,1.8-1.5,3.7-3,4.7c0,0,0,0,0,0c-1.3,0-2.8,0.2-4.5,0.7c-0.1,0-0.5,0.1-0.6,0c-1.5-1.2-3.9-2-7-1.9
			c2.1-1,3.3-2.5,3.7-4.1c0.2-0.8,0.2-1.7,0-2.5c3.6-1.8,6.8-1.8,8.8-0.7c0.8,0.4,1.4,1,1.9,1.6C257.9,151,258.1,151.7,258.1,152.4
			L258.1,152.4z M249.9,139.1c2.5-1,4.4-1.3,5.9-1c1.8,0.3,3,1.3,3.7,2.6c0.7,1.2,1,2.8,0.6,4.3c-0.4,1.2-1.3,2.5-3,3.6
			c0,0-0.1,0-0.1,0.1c-0.3-0.3-0.7-0.5-1.1-0.7c-2-1-4.8-1.2-8,0c1.8-1.8,2.5-3.9,2.6-5.8C250.6,141.1,250.3,140,249.9,139.1
			L249.9,139.1z M244.4,147.4c1.2,1,1.9,2.8,1.5,4.3c-0.4,1.7-2.1,3.4-5.3,4.3c-0.3-0.6-0.8-1.3-1.4-1.8c-1.6-1.5-4.2-2.5-7.6-2.3
			c2.1-1.5,3.2-3.3,3.5-5c0-0.1,0-0.2,0-0.3C239.5,145.3,242.6,146,244.4,147.4L244.4,147.4z M241.1,157c3.9-0.6,6.8,0.1,8.4,1.5
			c0.7,0.6,1.2,1.3,1.4,2c0.2,0.8,0.2,1.6,0,2.4c-0.5,1.7-2.3,3.5-5.3,4.6c-0.3-0.6-0.8-1.2-1.4-1.7c-1.5-1.2-3.7-2-6.6-2
			c1.9-1.1,3.1-2.5,3.5-4C241.3,158.9,241.3,157.9,241.1,157L241.1,157z M238.8,154.8c1.2,1.2,2,3.1,1.5,4.7c-0.5,1.7-2,3.4-4.9,4.4
			c0,0,0,0-0.1,0c-0.5,0-0.9,0.1-1.4,0.2c0,0-0.1-0.1-0.1-0.1c-1.2-1.5-3.3-2.7-6.4-3.1c2.1-0.8,3.5-1.9,4.2-3.1
			c0.5-0.9,0.6-1.8,0.4-2.7c-0.2-0.8-0.6-1.6-1.3-2.3C234.4,152.4,237.2,153.3,238.8,154.8L238.8,154.8z M229.7,153
			c0.1,0.1,0.2,0.2,0.3,0.2c0.7,0.7,1.1,1.4,1.3,2.1c0.2,0.7,0.1,1.4-0.3,2.1c-0.7,1.4-2.6,2.6-5.7,3.2c-0.1,0-0.1,0-0.2,0.1
			c-0.4,0-0.8,0-1.2,0c-0.1-0.9-0.4-1.8-1.1-2.7c-1.3-1.7-3.9-3.3-7.7-4.1c2.3-0.8,3.7-1.9,4.4-3.2c0.1-0.2,0.2-0.4,0.3-0.6
			c4.5-0.1,7.8,1,9.7,2.5C229.5,152.9,229.6,152.9,229.7,153L229.7,153z M223.9,161.6c4.7-0.3,7.9,1.1,9.3,2.9
			c0.5,0.6,0.8,1.3,0.9,2c0.1,0.7-0.1,1.4-0.4,2c-0.9,1.6-3.1,2.9-6.7,3.1c-0.1,0-0.2,0-0.2,0.1c-0.2-0.5-0.5-1.1-0.9-1.6
			c-1.4-1.7-3.9-3.3-7.5-4.2c2.4-0.5,4-1.4,4.9-2.6C223.6,162.8,223.8,162.2,223.9,161.6L223.9,161.6z M214.5,165.4
			c-0.2-0.5-0.5-1-0.9-1.5c-1.2-1.5-3.3-2.8-6.2-3.7c2.3-0.6,3.8-1.7,4.4-3.1c0.4-0.8,0.5-1.7,0.3-2.5c0,0,0-0.1,0-0.1
			c0.3,0,0.6,0.1,1,0.1c0,0,0.1,0,0.1,0c4.5,0.6,7.5,2.3,9,4.1c0.6,0.7,0.9,1.5,0.9,2.2c0,0.7-0.2,1.4-0.6,2.1
			C220.8,165.2,217.2,165.6,214.5,165.4L214.5,165.4z M100.7,240.9c-0.4,2.1-0.1,3.7,0.5,4.8c0.4,0.7,1,1.2,1.7,1.4
			c0.7,0.2,1.6,0.2,2.6-0.1c1.5-0.5,3.2-1.7,4.9-3.6c-2.2-1.1-5.1-2.9-6.9-5.1c-1,0.9-1.9,1.8-2.9,2.7L100.7,240.9L100.7,240.9z
			 M99.8,241.9c-0.2,1.8,0.1,3.3,0.7,4.3c0.5,0.9,1.3,1.5,2.2,1.8c0.1,0,0.2,0,0.2,0.1c-2.8,5.3-6.2,8.4-8.9,9.3
			c-1,0.3-1.9,0.4-2.6,0.2c-0.7-0.2-1.3-0.7-1.7-1.4c-0.2-0.4-0.4-0.8-0.5-1.4l0,0C92.1,250,95.9,245.7,99.8,241.9L99.8,241.9z
			 M89.1,254.8c-2.6,4.1-4.5,8.6-5.2,13.4c0,0.2-0.1,0.4-0.1,0.7c0-0.1,0-0.1,0-0.2c0.1,0,0.2-0.1,0.3-0.1c2.4-1.1,5-4,7-8.7
			c0.1-0.5,0.3-0.9,0.4-1.4c0-0.1,0-0.1,0.1-0.1c-0.1,0-0.3-0.1-0.4-0.1c-0.9-0.3-1.7-0.9-2.2-1.8c-0.1-0.2-0.3-0.5-0.4-0.8
			C88.7,255.4,88.9,255.1,89.1,254.8L89.1,254.8z M83.7,269.1c0,0.2,0,0.4-0.1,0.6c0.2-0.1,0.5-0.2,0.7-0.3c2.1-0.9,4.3-3.1,6.1-6.5
			c-0.1,2.1,0.4,3.8,1.2,4.9c0.6,0.8,1.4,1.3,2.2,1.6c0.6,0.2,1.2,0.2,1.8,0.1c-1.2,4.9-3.4,8-5.6,9.3c-0.9,0.5-1.8,0.7-2.7,0.7
			c-0.8-0.1-1.6-0.4-2.3-1c-0.5-0.4-0.9-0.9-1.2-1.6c0,0.2,0.1,0.5,0.1,0.7C83.6,274.4,83.5,271.5,83.7,269.1L83.7,269.1z
			 M84.2,277.7c0,0.1,0,0.2,0,0.3C84.2,277.9,84.2,277.8,84.2,277.7L84.2,277.7z M84.4,278.7c1,5.4,3,11.2,5.7,16.5l0,0
			c0.8,0.3,1.6,0.5,2.3,0.3c0.7-0.1,1.4-0.4,2-1c1.1-1.1,1.8-2.9,1.7-5.7c0,0-0.1,0-0.1,0.1c-1,0.6-2.1,0.8-3.1,0.7
			c-1-0.1-2-0.5-2.8-1.2c-1.6-1.5-2.7-4.2-2.6-8.2c0,0-0.1,0-0.1,0c-1-0.1-2-0.5-2.8-1.2C84.6,278.9,84.5,278.8,84.4,278.7
			L84.4,278.7z M121.7,246.6c-1.1,1.2-2.3,2-3.5,2.5c-0.9,0.3-1.8,0.4-2.5,0.3c-0.7-0.1-1.4-0.5-1.9-1.1c-0.7-0.8-1.1-2.1-1.1-3.7
			c2.5,1,5.3,1.9,7.8,2.1C120.9,246.7,121.3,246.7,121.7,246.6L121.7,246.6z M94.8,295.3c0.5,2.5,1.6,3.9,2.9,4.5
			c0.7,0.3,1.5,0.4,2.3,0.2c0.8-0.2,1.6-0.6,2.4-1.3c2.1-1.8,3.8-5.3,3.6-9.9c-0.9-0.1-1.8-0.4-2.5-1c-1.3-1.1-2.3-3-2.4-5.7
			c-1,2.9-2.4,4.9-4,6.1c0.2,3.3-0.6,5.5-2,6.8C94.9,295.2,94.8,295.2,94.8,295.3L94.8,295.3z M96.1,287.9c-0.2,0.1-0.3,0.2-0.5,0.3
			c-0.9,0.5-1.8,0.7-2.6,0.6c-0.8-0.1-1.6-0.4-2.3-1c-1.5-1.3-2.5-3.9-2.3-7.6c0.7-0.1,1.5-0.3,2.2-0.8c1.8-1,3.6-3.1,4.9-6.2
			c0.2,2.5,1.2,4.3,2.5,5.4c0.8,0.7,1.8,1.1,2.8,1.2c-0.9,3.8-2.5,6.4-4.2,7.8c0,0-0.1,0-0.1,0C96.2,287.6,96.1,287.7,96.1,287.9
			L96.1,287.9z M117.7,260.8L117.7,260.8c-0.1,3.5,0.8,6.1,2.3,7.7c0.7,0.7,1.4,1.3,2.2,1.6c0,0,0,0.1,0,0.1
			c-0.8,3.5-2.4,5.7-4.1,6.8c-0.8,0.5-1.7,0.8-2.6,0.7c-0.4,0-0.8-0.1-1.3-0.3c-0.1-0.1-0.2-0.2-0.3-0.2c0,0-0.1,0-0.1,0
			c-0.2-0.1-0.5-0.3-0.7-0.5c-1.4-1.2-2.5-3.4-2.8-6.6c2.5-1.5,5.1-4.6,6.9-9.5C117.4,260.6,117.6,260.7,117.7,260.8L117.7,260.8z
			 M92.3,258.4c0.6,0,1.3-0.1,1.9-0.3c2.3-0.8,4.9-2.8,7.3-6.3c-0.6,2.8-0.3,4.9,0.5,6.4c0.4,0.6,0.9,1.1,1.4,1.5
			c-1.7,5.2-4.4,7.9-6.9,8.7c-0.8,0.3-1.7,0.3-2.4,0.1c-0.7-0.2-1.3-0.6-1.8-1.3c-1.1-1.4-1.5-3.8-0.6-7c0.2-0.4,0.4-0.9,0.5-1.4
			C92.4,258.6,92.4,258.5,92.3,258.4L92.3,258.4z M114,280c-0.8,4.2-2.7,6.9-4.9,8.1c-0.7,0.4-1.4,0.6-2.1,0.7
			c0.8,3.3,2.6,5.3,4.6,6.3c1,0.5,2.1,0.6,3.2,0.5l0,0c0.1-0.1,0.2-0.1,0.3-0.1c0.1,0,0.1,0,0.2,0c0.9-0.2,1.7-0.6,2.5-1.1
			c1.8-1.4,3.2-3.9,3.4-7.6c0-0.1,0-0.1,0-0.2c0-0.1,0-0.1,0-0.2c-0.3,0.1-0.6,0.1-1,0.2c-1,0.1-2.1-0.2-3-0.8
			C115.9,284.8,114.6,282.8,114,280L114,280z M115.5,297.6c0.1,0,0.2,0.1,0.3,0.3c1.2,3.6,3.1,5.8,5,6.6c0.8,0.3,1.7,0.4,2.5,0.2
			c0.8-0.2,1.5-0.7,2.1-1.4c1.4-1.8,2.2-5,1.6-9.5c-0.3-0.1-0.7-0.2-1-0.4c-1.5-0.8-3-2.4-4.1-4.8c-0.5,3.1-1.9,5.3-3.6,6.6
			c-0.9,0.6-1.8,1.1-2.8,1.3C115.6,296.8,115.5,297.2,115.5,297.6L115.5,297.6z M114.7,296.5c-1.2,0.1-2.3-0.1-3.4-0.6
			c-1.9-0.9-3.6-2.6-4.6-5.3c-0.2,4-1.8,7.1-3.9,8.8c-0.3,0.2-0.5,0.4-0.8,0.6c0.1,0.1,0.2,0.2,0.2,0.3c0.6,3.5,2,5.7,3.8,6.7
			c0.8,0.5,1.7,0.6,2.6,0.5c0.9-0.1,1.8-0.5,2.6-1.2C113.1,304.5,114.6,301.3,114.7,296.5L114.7,296.5z M106.2,288L106.2,288
			c-0.9,0-1.6-0.3-2.3-0.9c-1.5-1.2-2.5-3.7-2-7.4c0.8-0.1,1.5-0.3,2.3-0.6c2.2-1.1,4.4-3.4,5.6-7.2c0.5,2.5,1.6,4.3,2.9,5.4
			c0.3,0.2,0.6,0.4,0.9,0.6c-0.4,5.1-2.5,8.2-4.7,9.5c-0.6,0.4-1.3,0.6-1.9,0.6c-0.1-0.1-0.2-0.1-0.4-0.1
			C106.3,287.9,106.2,288,106.2,288L106.2,288z M101,278.9L101,278.9c-1-0.1-1.8-0.4-2.5-1c-1.5-1.2-2.5-3.6-2.2-7c0,0,0,0,0-0.1
			c0.2-0.5,0.3-1.1,0.4-1.6c0.1,0,0.1,0,0.2-0.1c2-0.6,4.1-2.4,5.8-5.5c-0.2,2.6,0.3,4.6,1.3,5.8c0.6,0.8,1.5,1.3,2.5,1.5
			c0.9,0.1,1.8,0,2.9-0.4c-1.1,4.2-3.2,6.7-5.5,7.8c-0.7,0.4-1.5,0.5-2.2,0.6c-0.1,0-0.1-0.1-0.2-0.1
			C101.2,278.8,101.1,278.9,101,278.9L101,278.9z M109.6,269.5c-0.1,0.1-0.3,0.1-0.4,0.2c-0.9,0.4-1.8,0.6-2.6,0.4
			c-0.8-0.1-1.4-0.5-1.9-1.2c-1.1-1.4-1.5-3.9-0.8-7.4c0-0.1,0-0.1,0-0.2c0.2-0.4,0.3-0.9,0.5-1.3l0,0c0.9,0.3,2,0.3,3.1-0.1
			c2.3-0.7,4.9-2.8,7.3-6.5c-0.2,2.5,0.2,4.4,1,5.6c0.2,0.4,0.5,0.7,0.8,0.9c-1.8,4.9-4.3,8-6.7,9.3
			C109.7,269.3,109.6,269.4,109.6,269.5L109.6,269.5z M103.8,248.1c-0.3,0.5-0.5,1-0.8,1.4c0,0.1,0,0.2,0,0.2
			c-1.2,3.7-1.1,6.4-0.2,8c0.4,0.7,1,1.2,1.8,1.5c0.8,0.2,1.6,0.2,2.6-0.1c2.4-0.8,5.4-3.3,7.9-7.8c0,0,0-0.1,0.1-0.1
			c0.2-0.3,0.4-0.7,0.5-1c0,0,0,0,0,0c0,0-0.1,0-0.1,0c-0.9-0.2-1.7-0.7-2.4-1.4c-0.9-1-1.4-2.6-1.3-4.6c-0.2-0.1-0.5-0.2-0.7-0.3
			l0,0c-1.9,2.1-3.8,3.4-5.4,4C105,248,104.4,248.1,103.8,248.1L103.8,248.1z M102,231.7c-0.1,0.3-0.2,0.6-0.3,0.9
			c-0.3,1.2-0.2,2.3,0.2,3.3c-1.3,0.3-2.6,0.7-3.9,1c-5,1.2-10.2,2.3-15.3,2.9c-1.1-1.3-2.7-3-4.2-2.9c-1.6,0.1-3,2.3-3.8,3.7
			c-1,0.1-2.1,0.1-3.3,0.1c-0.4-0.9-0.9-1.8-1.4-2.7c-0.5-0.9-1.2-1.8-2.3-2c-1.1-0.2-2.1,0.6-2.9,1.3c-0.8,0.7-1.5,1.6-2.1,2.4
			c-0.1,0.1-0.2,0.3-0.3,0.4c-0.7-0.1-1.3-0.2-2-0.3c0-0.2-0.1-0.4-0.1-0.6c-0.2-1-0.3-2-0.6-3c-0.3-1-0.7-2.1-1.7-2.5
			c-1.1-0.5-2.2,0-3.2,0.5c-0.9,0.5-1.8,1.1-2.7,1.7c-0.2,0.2-0.4,0.3-0.6,0.5c-0.5-0.4-1.1-0.7-1.5-1.2c0.1-0.3,0.1-0.7,0.2-1
			c0.2-1,0.4-2.1,0.5-3.2c0.1-1.1,0-2.4-0.9-3.1c-0.9-0.7-2.1-0.6-3.1-0.3c-0.6,0.1-1.1,0.3-1.6,0.5c-0.5-1-0.9-2-1.3-3
			c0.5-0.5,1-1,1.4-1.6c0.7-0.9,1.3-2,0.9-3.2c-0.4-1.1-1.7-1.5-2.7-1.8c-0.5-0.1-1-0.2-1.5-0.3c-0.4-2.3-0.6-4.7-0.4-7.1
			c0.3-0.4,0.5-0.8,0.6-1.3c0-0.5-0.1-0.9-0.3-1.3c1.3-10.8,7.5-21.3,13.5-30.1c5.4-8,8.8-17.2,8.7-26.9c0-8.1-2.3-13.3-4.7-16.9
			c-1.9-2.8-4.2-4.6-7.4-6.3c3-2,5.3-4.9,6.4-8.9c0.7-2.4,0.8-4.8,0.6-7.3c-0.3-3.1-1.1-6.2-2.3-9c-1.1-2.6-2.6-4.5-4.7-6.3
			c-5.2-4.7-2.2-5.8-2.4-6.3c-0.7-0.6-2.3,0-3.2,0.3c-1.1,0.3-2.1,0.9-3,1.7c-0.1-0.7-0.2-1.4-0.2-2.1c-0.4-4.9-3-8.7-7.5-10.7
			c-1.8-0.8-9.2-2.4-10.3-0.2c-0.2,0.4,2.9,4.3,3.4,6.3c0.5,1.9,0.4,3.7-1.2,5.1c-2.2,1.9-3.7,4.4-4.5,7.1c-1.6-0.8-4.4-1.7-8.6,0.4
			c4.3,3.7,4.3,6.4,3,11.1c-1,3.7-1,7.1,0.1,10.7c3,10.6,14,12.6,23.5,11.8c0,0,0.1,0,0.1,0c0.8-0.1,1.5-0.2,2.3-0.4
			c1.6,1.1,3.1,2.2,4,3.8c3.3,6.5,3.3,14.5-0.5,23.5c-3.4,8-11.1,14.7-17.6,20.2c-9.7,8.2-18.5,19.4-23.6,31
			c-6.8,15.3-7.6,31.4-0.2,46.7c8.8,18.2,26,30,45.3,34.8c11.4,2.9,23.8,3.3,35.5,1c2.4,5.4,5.6,10.4,9,14.3
			c0.1,0.1,0.2,0.2,0.3,0.4c-2.3,0-4.7,0.2-7,0.6c-5,0.9-8.9,4.3-11.8,8.5c-1.5,0.6-3.1,2.1-4.1,3.1c-1.5,1.5-4.3,4.5-3.1,6.8
			c1,2,4.1,1.9,6.1,1.7c0.5,0.2,0.9,0.3,1.4,0.5c2,0.6,4.2,0.8,6.3,1.1c1.7,0.2,3.4,0.3,5.1,0.4c0.9,0.2,1.8,0.2,2.6,0.2
			c4.1,0.2,8.1,0.3,12.1,0.4c5.4,0.1,10.9,0.1,16.4,0c3.5,0,7-0.1,10.5-0.3c4-0.2,6.3-2.1,5.9-6.4c-0.2-2.2-0.7-4.3-1.4-6.5
			c-0.2-0.7-0.5-1.5-0.8-2.2c-0.1-0.3-0.2-0.6-0.3-0.9c0.1-0.7,0.6-1.4,0.9-1.9c0.9-1.3,2.3-2.4,3.8-3.3c0.1,0,0.2-0.1,0.3-0.2
			c0.3-0.1,0.5-0.3,0.8-0.4c3.6-1.8,7.4-5.2,10.1-8.5c3.2,1,6.7,1.7,9.9,2.2c8.4,1.5,17.3,1.9,25.7,0.7c4.5-0.6,9-1.7,13.2-3.1
			c1.6,2.2,0.8,5.6-0.1,8c-2.2,5.8-5.1,15.2,1.7,19.2c1.1,0.6,3.2,0.8,4.5,0.9c2.4,0.2,4.8,0.2,7.2,0.3c5.8,0.1,11.5,0.1,17.3,0
			c0.3,0,0.6,0.1,0.9,0.1c1,0.1,2.5,0.2,3.7-0.1c3.6-0.1,7.1-0.1,10.7-0.2c0.9,0.2,1.9,0.3,2.8,0.3c1.1,0.1,2.7,0.3,3.9-0.5
			c3.4-0.1,6.9-0.2,10.3-0.3c0.4,0.1,0.9,0.1,1.3,0.1c1.5,0.1,4,0.4,4.8-1.7c0.8-2-0.7-4.5-1.8-6.2c0-0.1,0-0.3,0-0.4
			c-0.3-4.2-1.6-8.3-4.5-11.4c-3.5-3.7-10.8-3.7-15.5-3.3c-1.4,0.1-2.9,0.2-4.4,0.4c5.5-4.8,10.7-10.4,14.5-16.7
			c5.7-9.3,8.4-20.3,6.7-31.1c-1.4-9.3-6.1-18.2-13.9-23.6c-3.3-2.3-6.9-3.7-10.7-4.4c-0.1-0.6-0.3-1.1-0.4-1.7
			c-1.5-6.2-4-12.2-6.9-17.9c-4.5-8.8-10.1-16.9-15.7-25c-2.7-3.9-5.3-7.8-7.5-11.8c0.8-0.5,1.5-1,2.4-1.4c1.6,0.7,3.2,1.3,4.9,1.8
			c3.5,1.2,7,2,10.5,2.5c1.2,1.6,2.5,3.3,3.9,4.7c1.2,1.2,2.7,2.3,4.5,1.6c1.9-0.7,1.9-2.4,2.8-3.9c0.6-1,1.3-1.3,2.5-1.3
			c4.1-0.1,6.2,1.3,7.2,5.2c0.5,1.8,0.6,3.7,0.9,5.5c0.3,1.9,0.7,4.2,2.6,5.3c1.4,0.8,3,0.5,4.4-0.3c2.2-1.2,2.8-4.4,3.1-6.7
			c0.4-3.5,0.3-7.3,0-10.7c-0.1-0.9-0.2-1.8-0.3-2.7c12.3-4.4,23-11.6,31.6-21.5c3-3.5,5.7-7.2,8.1-11.2c0.8-1.4,1.6-2.7,2.3-4.1
			c0.4-0.8,0.9-1.6,1.3-2.4c2.2-3.6,6.5-3.7,7.3-8.4c0.7-0.6,1.4-1.2,2-1.8c0.9-0.9,1.8-2,1.5-3.4c-0.6-2.9-4.9-2.4-7.1-2.1
			c-0.1,0-0.2,0-0.3,0c-0.7-0.2-1.4-0.3-2.2-0.3c-1.5,0-3.5,0.7-5.2,1.4l-0.5-0.6c1.2-3.1,2-7.3,0.3-10c-0.1-0.1-0.2-0.3-0.3-0.4
			l0-0.1c0.2-0.9,0.3-1.9,0.4-2.9c0.1-1.3,0.1-2.7-1.1-3.6c-2.4-1.8-5.3,1.4-6.8,3c-0.2,0.3-0.5,0.6-0.8,0.9c-1,0.4-1.9,1-2.6,2
			c-0.5,0.7-1.1,1.4-1.7,2.2c0.3-2.2,0.1-4.6-1.1-6.2c0-0.3,0.1-0.7,0.1-1c0.1-1,0.1-1.9,0.1-2.9c0-1.3-0.2-2.7-1.5-3.5
			c-1-0.6-2.2-0.5-3.1,0.2c-0.4,0.3-0.8,0.6-1.2,1c-0.8,0.8-1.5,1.6-2.2,2.5c-0.5,0.6-1.1,1.5-1.5,2.3c-1.2,0.7-2.2,1.7-3,2.8
			c-1.5,2.2-2.8,5.3-3.4,8l-1.6,1.7c-0.1-0.1-0.1-0.2-0.2-0.4c-0.5-1-1.1-2.2-1.9-3.2c-0.1-0.6-0.2-1.1-0.3-1.7
			c-0.2-0.9-0.4-1.9-0.7-2.8c-0.4-1.3-0.9-2.5-2.3-2.9c-1.1-0.3-2.2,0.2-3,1c-0.3,0.4-0.6,0.8-0.9,1.3c-0.5,0.9-1,2-1.4,3
			c-0.4,1-0.8,2.3-1,3.5c-1.1,2-1.2,4.7-1.1,6.9c0.1,3.2,0.3,9.6,2.2,13.1c-0.5,0.7-1.3,1.4-1.7,1.8c-1.6,1.6-3.5,3-5.4,4.3
			c-0.6,0.4-1.3,0.9-1.9,1.3c-3.3-5.5-7.2-10.9-11.6-15.2c-3.4-3.3-9.6-8.3-14.6-6c-0.3,0.2-0.7,0.3-1,0.6c-1.3,0.9-2.3,2-3.2,3.2
			c-1.6,2.1-2.6,4.5-4,6.8c-1.6,2.7-3.5,4.7-6.1,6.4c-2.6,1.8-5.7,2.6-8.8,2c-1.7-1.9-3.3-3.8-4.6-5.4c0.9-0.6,1.7-1.2,2.5-1.9
			c3.3-2.5,6.6-5.1,9.6-7.8c3.3-2.9,7.2-6.6,9.4-10.4c0.7-1.2,1.3-2.5,1.8-3.8c0.7-1.7,1.3-3.4,1.9-5.1c0.2-0.5,0.3-1,0.5-1.4
			c0.3,0.1,0.6,0.2,1,0.2c1.2-0.1,1.9-1.2,2.3-2.2c0.4-0.9,0.7-1.9,1-2.8c0.4-1.4,0.8-2.8,1.1-4.2l0.2-1.1c3.5-2.9,5.6-7.1,5.9-11.6
			c0.3-4.3-1-8.7-3.9-11.8c-3.7-4.1-8.8-5.2-13.9-4.1c-0.3-1.4-0.7-2.8-1.1-4.2c-0.5-1.7-1-3.4-1.6-5c-0.7-2.7-1.6-5.3-2.9-7.4
			c-0.4-0.9-0.8-1.8-1.3-2.7c-1.4-2.9-3-5.6-4.7-8.3c0.6-0.5,1.1-1,1.6-1.5c4.7-4.7,6.9-10.6,6.4-17.2c-0.4-4.9-2.4-10.2-5.8-13.9
			c-1.3-1.5-3.2-3.3-5.4-2.7c-2.3,0.6-2.9,3.1-3.2,5.2c-0.3,2.1-0.5,4.5-1.7,6.3c-2.2,3.4-4.9,5.6-8.4,7.5c-0.2-2.6-1.9-6.2-4.6-6.7
			c-2.4-0.4-4.1,1.7-5.1,3.5c-0.9-0.2-1.8-0.4-2.7-0.6c-0.3-0.9-0.8-1.8-1.5-2.5c-1.5-1.7-3.4-2.2-5.2-1.6c-0.5-2.5-1.6-4.9-3.3-6.3
			c-0.5-0.4-1.1-0.8-1.6-1c-2.9-1.3-5.6-0.3-7.7,2c-0.1,0.2-0.3,0.3-0.4,0.5c-2-2.8-4.9-4.7-8.4-5c-3.9-0.3-6.6,1.8-7.3,5.5
			c-0.1,0.4-0.1,0.9-0.2,1.4c-1.7-0.3-3.4-0.2-4.7,0.8c-2,1.4-2.1,3.8-1.5,6c-1.7,0.9-2.6,2.9-3.1,4.7c-0.1,0.3-0.2,0.7-0.2,1.1
			c-1.2,0.7-2.4,1.5-3.6,2.3c-0.4-0.2-0.8-0.4-1.2-0.6c-1.6-0.7-3.3-1.3-4.9-1.9c-4.5-1.8-8-4-11.1-7.8c-1.8-2.1-2.3-4.9-3-7.5
			c-0.6-2.2-1.8-5-4.5-5.2c-2.9-0.2-4.8,3.1-6,5.2c-2.9,5-4.2,11.3-3.8,17c0.5,7.4,3.9,13.7,9.7,18.3c2.5,2,5.6,4,8.8,5
			c-1.1,3.5-1.8,7.2-2.3,10.9c-0.4,2.9-0.7,5.9-0.8,8.8c-0.1,1.7-0.1,3.4-0.2,5.1c-0.1,1.7-0.5,3.2-1,4.7c-0.9,2.9-2.2,5.7-3.5,8.5
			c-0.6,1.4-1.4,2.8-2.1,4.2c-0.9,2-1.6,4.1-1.8,6.3c-0.3,3.4,0.3,6.6,1.7,9.7c3.6,7.4,11.8,12.1,19,15.3c4.9,2.2,10,3.9,15,5.7
			c2,0.7,7.1,2.5,8.6,3.9c0.8,0.8,1.6,1.6,2.3,2.5c0.8,2.7,0.5,4.4,0.2,5.3c-0.1,0.3-0.3,0.6-0.4,0.9c-1.4,1.2-3.4,2.1-5.1,2.5
			c-4.1,0.9-8.2-0.1-11.6-2.5c-2.6-1.8-4.6-3.9-6.4-6.6c-1.4-2.2-2.4-4.5-3.8-6.6c-1.1-1.6-2.4-3-4-4.1c-2.4-1.7-5.5-1.6-8.2-0.7
			c-3.3,1-6.5,3-9.2,5c-7.5,5.6-14.2,13.7-19.2,21.6c-5.3,8.3-9,18.4-10.6,28.1c-0.7,4-2.1,15.3,2.4,17.7c1.4,0.7,2.9,1,4.4,0.3
			c1.9-0.9,2.6-3.1,2.9-5c0.3-1.9,0.4-3.9,0.4-5.8c0.1-3.7,4.5-6.4,7.9-6c1,0.1,1.4,0.7,1.8,1.5c0.8,1.7,1.2,3.5,3,4.5
			c0.2,0.1,0.4,0.2,0.6,0.3c-0.8,1.4-1.4,2.9-1.8,4.4c-2.2,8.4,2.5,16.5,7.5,22.8c3.2,4.1,6.9,8.4,10.7,12.2c-0.5,0-1.1,0.2-1.5,0.6
			c-2.3,1.7-0.5,5.9,0.4,7.9C101.1,230,101.5,230.9,102,231.7L102,231.7z M255.8,108.7c0.8-1.9,1.7-3.7,2.1-3.6
			c0.4,0.1,0.8,1.7,1.2,3.4c0,0-0.1,0-0.1,0C257.9,108.5,256.9,108.5,255.8,108.7L255.8,108.7z M275.9,100c1.2-1.6,2.5-2.9,2.9-2.6
			c0.3,0.2,0.3,1.7,0.2,3.3C277.9,100.2,276.9,100,275.9,100L275.9,100z M290.3,104.5c1.1-1.1,2.1-1.8,2.4-1.6
			c0.2,0.2,0.2,1.2,0,2.5C292,104.9,291.2,104.6,290.3,104.5L290.3,104.5z M305.8,119.6c1,0,1.8,0.1,1.8,0.4
			c0.1,0.2-0.4,0.8-1.1,1.5C306.4,120.7,306.1,120.1,305.8,119.6L305.8,119.6z M87.1,179.1c0.9-1.2,2-2.4,3.1-3.5
			c0.5-1.2,1-2.8,1.7-4.7c0.4-1.1,1.2-2.6,2.3-4c1.9-8.3,6.7-26.7,11.4-33.1c-2.1-2.4-3.5-3.6-6.9-1.4
			c-11.9,7.5-20.8,27.4-25.3,42.3c2-1.4,4.6-2.2,6.9-1.9c4.8,0.5,3.8,6.6,6.5,6.4C86.9,179.1,87,179.1,87.1,179.1L87.1,179.1z
			 M94,172.4c3.1-2.3,6.6-4.3,9.7-5.9c1.8-0.9,3.6-1.9,5.3-2.9c-2.6-0.8-5.3-0.8-8,0.6c-2.8,1.4-5.7,4.5-6.8,7.5
			C94.2,172,94.1,172.2,94,172.4L94,172.4z M113.1,161.4c5.5-3.3,10.9-7,15.7-11c1.3-1.1,2.8-2.4,4.2-3.9
			c-6.8,0.2-11.9-0.8-16.7-3.5C114.9,148.4,113.4,156,113.1,161.4L113.1,161.4z M133.5,146c1.3-1.3,2.6-2.8,3.8-4.3
			c-4.3,1.5-10,1.4-15.3-2.3c-9.3-6.5-8.3-13.1-14.2-17.3c-5.9-4.2-21.6,7.1-33,25.2c-11.4,18.1-12.8,40.3-9.1,42.3
			c0.3,0.1,0.5,0.3,0.8,0.3c0.1-0.5,0-1-0.1-1.7c-0.3-2.5-0.8-7,2.5-18.4c2.7-9.4,8.8-20.9,15.3-29.5c6-8,12.3-13.5,16.7-12.7
			c2.7,0.5,3.8,2.1,5.2,4.2l0.4,0.5c0.2,0.3,0.5,0.7,0.7,1c0.7,0.9,1.5,1.8,2.4,2.8c2.9,3.1,5.6,5.2,8.3,6.6c2.9,1.3,6.5,2.4,11,2.9
			c0.1,0,0.2,0.1,0.3,0.2C130.6,145.8,132,145.9,133.5,146L133.5,146z M136.3,180.5c-0.4,0.5-0.8,0.9-1.3,1.4c-1.9,2-4,4-6.2,5.8
			c1.3,1.5,2.6,3,3.8,4.5C134,188.3,135.2,184.4,136.3,180.5L136.3,180.5z M163,98.8c0,0-2.6,5.6-3.7,5.5c-1.1-0.1-3.8-6.1-3.8-6.1
			S159.4,97.8,163,98.8L163,98.8z M214.5,94.7c3.2-3.1,5.9-3.3,5.9-3.3s-1.8,7.8-3,7.9C216.2,99.3,214.5,94.7,214.5,94.7L214.5,94.7
			z M187.5,106.6c4.2,1.9,8.7,7.4,2.6,11.3c-3.5,2.2-11,1.4-14.5-1.4c-3.5-2.9-4.3-6-7.1-9.9c1.6-0.7,3.6-1.2,5.8-1.5
			c4.3,0.4,6.8,2.2,9,6c0.3-2.8-1.6-4.9-4-6.2C182.1,104.9,185,105.5,187.5,106.6L187.5,106.6z M115.4,75c3.5-1.6,7.9-2.1,12.4-1.7
			c-0.7-0.9-1.3-2-1.8-3.1c-0.8-1.8-1.2-3.9-1.2-6c0-4,1.5-7.7,4-10.4c2.5-2.7,6-4.3,9.8-4.3c3.8,0,7.3,1.6,9.8,4.3
			c2.5,2.7,4,6.3,4,10.4c0,3.8-1.4,7.4-3.7,10c-1.9,2.1-4.3,3.7-7.1,4.4c0.6,0.5,1.1,1,1.6,1.5C134,75,125.6,74.1,115.4,75L115.4,75
			z M129.2,73.4c-0.9-1.1-1.7-2.3-2.3-3.6c-0.7-1.7-1.1-3.6-1.1-5.6c0-3.8,1.4-7.2,3.8-9.7c2.3-2.5,5.5-4,9.1-4c3.5,0,6.8,1.5,9.1,4
			c2.3,2.5,3.8,5.9,3.8,9.7c0,3.6-1.3,6.9-3.4,9.3c-1.9,2.2-4.5,3.7-7.4,4.2C137.5,75.4,133.4,74,129.2,73.4L129.2,73.4z
			 M174.9,15.1c2.1-2.6,4-1.1,5,1.1c0,0-0.1,0-0.1,0.1c-0.5,0.3-1.1,0.4-1.8,0.3c-0.7-0.1-1.5-0.3-2.1-0.6
			C175.5,15.7,175.1,15.5,174.9,15.1L174.9,15.1z M180.1,16.7c0.3,0.8,0.5,1.6,0.6,2.3c0,0,0,0-0.1,0c-0.6,0.5-1.7,0.6-3,0.4
			c-1.3-0.1-2.6-0.6-3.6-1.2c-0.2-0.2-0.4-0.3-0.6-0.5c0,0-0.1-0.1-0.2-0.1c0.1-0.1,0.1-0.2,0.2-0.4c0.3-0.7,0.7-1.2,1-1.7
			c0.3,0.3,0.6,0.6,1,0.8c0.7,0.4,1.6,0.6,2.4,0.7C178.7,17.2,179.5,17.1,180.1,16.7L180.1,16.7L180.1,16.7z M180.8,19.7
			c0,0.1,0,0.1,0,0.2c0.1,1.3-0.6,1.2-1.6,1.4c-2.1,0.4-5.5-0.5-6.3-2.2c-0.1-0.3,0-0.6,0.2-1c0.2,0.2,0.4,0.4,0.7,0.6
			c1,0.7,2.5,1.2,3.8,1.4C178.9,20.2,180,20.1,180.8,19.7L180.8,19.7z M137.8,20.2c-0.3,0.4-0.6,0.8-0.9,1.1
			c-0.1-0.9-0.6-1.7-1.1-2.5l-0.1-0.1c0.8-0.2,1.6-0.5,2.4-0.7c1.7,1.8,4.1,3,6.1,3.2c0.4,0,0.7,0.1,1,0c0.6,1.3,0.6,2.3,0.3,2.9
			c-0.2,0.4-0.5,0.6-1,0.8c-0.5,0.2-1.1,0.2-1.8,0.1c-1.8-0.2-4-1.3-5.5-2.9C137.5,21.6,137.7,20.9,137.8,20.2L137.8,20.2z
			 M132.8,17.6c-0.1,0.1-0.3,0.3-0.4,0.4c-0.8,0.7-1.9,1.1-2.9,1.4c-1,0.2-2,0.2-2.6-0.2C127.7,16.5,129.8,14.5,132.8,17.6
			L132.8,17.6z M126.6,19.8c0.8,0.3,1.8,0.4,2.9,0.2c1.1-0.2,2.3-0.8,3.2-1.5c0.2-0.1,0.3-0.3,0.5-0.4c0.4,0.4,0.8,1,1.2,1.6
			c0.2,0.2,0.3,0.5,0.4,0.7l0,0l0,0c-1,1.1-2.8,1.9-4.6,2.3c-1.6,0.4-3.1,0.4-3.9,0C126.3,21.8,126.4,20.8,126.6,19.8L126.6,19.8z
			 M126.4,23.3c1,0.3,2.5,0.3,4-0.1c1.8-0.4,3.6-1.3,4.7-2.3c0.3,0.6,0.2,1.1-0.1,1.6c-1.2,1.7-5.2,3.3-7.7,2.3
			C126.8,24.7,126.5,24.1,126.4,23.3L126.4,23.3z M168.6,27.2l0.2-0.6c0.9,0.5,1.7,0.9,2.5,1.1c0.5,0.1,0.9,0.2,1.3,0.2
			c0.6,1.4,0.9,2.8,0.7,3.8c-0.1,0.3-0.2,0.6-0.4,0.9C171.8,30.6,170.3,28.8,168.6,27.2L168.6,27.2z M171.6,33.1c-0.1,0-0.2,0-0.3,0
			c-1.4-0.2-3.5-1.3-6.4-3.8c0,0,0,0,0.1-0.1c0.4-0.4,0.6-1,0.7-1.7c0-0.2,0-0.3,0-0.5l1.5,1.1C168.9,29.6,170.4,31.3,171.6,33.1
			L171.6,33.1z M190.9,48.4c0.4-0.7,0.8-1.3,1.3-1.4c0.3-0.1,0.7-0.2,1-0.3c0.3-0.1,0.7-0.1,1-0.1c2.3,0,4.1,1.2,5.5,3
			c1.7,2.2,2.7,5.2,2.9,7.9c0.1,1.4,0,2.8-0.3,4.2c-0.3,1.3-0.7,2.5-1.4,3.6c-0.7,1.1-1.4,1.5-2.2,1.5c1.6-1.7,2.5-4.6,2.3-8
			c-0.4-5.3-3.4-9.5-6.8-9.5c-1.1,0-2.2,0.5-3,1.3c1,0.3,1.9,1.5,2,3.1c0.1,1.7-0.8,3.1-2,3.1c-0.8,0-1.6-0.7-2-1.7
			c0.2-1.2,0.4-2.3,0.7-3.5C190,50.5,190.4,49.4,190.9,48.4L190.9,48.4z M130.4,31.2c2.9-2.7,8.5-4.7,13-0.3
			c0.9,0.9,2.9,2.5-6.2,2.7C131.4,33.8,124.8,36.4,130.4,31.2L130.4,31.2z M157.9,72.3c2.4-12-2.4-27.6-15.9-29.7
			C127.6,40.3,121,57,121.5,68.7l0.4,3.6c0.9-5.7,1.4-11.6,3.9-17c3.4-7.3,11.4-12.5,19.3-8.9C155.8,51.3,157.1,62.1,157.9,72.3
			L157.9,72.3z M170.2,79.4c-2.4-1.2-4.7-1-5.2,0.5c-0.5,1.4,0.9,3.6,3.3,4.8c2.4,1.2,4.7,1,5.2-0.5
			C174.1,82.7,172.6,80.6,170.2,79.4L170.2,79.4z M207.7,70.8c-12.2-1.3-22.8-0.3-34.8,3.2l2.9-1.5
			C183.6,69.3,199.7,67.7,207.7,70.8L207.7,70.8z M203,102.1c2.1-8.3,4.3-19.7-1.5-26.9c3.8,2.1,4.9,7.2,5.2,11.2
			C207.1,92.6,205.7,96.8,203,102.1L203,102.1z M198.6,56.1c1,3.4,2,6.3-1.1,9.3c-0.9,0.9-1.5,1-2.6,0.8
			C198.1,63.7,198,60.4,198.6,56.1L198.6,56.1z M138.6,52.9c5.6,0,10.1,5,10.1,11.2c0,6.2-4.5,11.2-10.1,11.2
			c-5.6,0-10.1-5-10.1-11.2c0-1.5,0.3-2.9,0.7-4.2c0.7,0.6,1.6,1,2.6,1c2,0,3.6-1.5,3.6-3.4c0-1.3-0.8-2.5-2-3
			C135,53.5,136.8,52.9,138.6,52.9L138.6,52.9z M145.8,61.9c2.6,11.5-9.9,13.4-13,7.6c1.7,1,2.7,1.6,4.7,1.7
			C143.5,71.3,144.9,66.6,145.8,61.9L145.8,61.9z M212.2,72.3c1.6-1.7,3.6-2.1,4.6-0.7c0.9,1.3,0.4,3.8-1.2,5.6
			c-1.6,1.7-3.6,2.1-4.6,0.7C210.1,76.5,210.6,74,212.2,72.3L212.2,72.3z M172.7,27c-0.3,0-0.7-0.1-1.1-0.2c-0.8-0.2-1.6-0.5-2.4-1
			l0.1-0.2c0.8-2.2,1.4-5,1.2-7.6c0.2,0,0.4,0.1,0.6,0.1c-0.2,0.3-0.3,0.6-0.1,1.1c0.3,0.6,0.9,1.2,1.6,1.7l0,0
			c0.4,0.7,1,1.3,1.6,1.8c0.6,1.6,0.6,2.7,0.3,3.4c-0.2,0.4-0.6,0.7-1,0.8c-0.1,0-0.2,0-0.3,0.1C173,26.9,172.9,26.9,172.7,27
			C172.7,27,172.7,27,172.7,27L172.7,27z M155.6,24.6c0.3-0.4,0.5-0.8,0.7-1.4c0.1-0.6,0.1-1.3,0-2c0,0,0-0.1,0-0.1
			c1.5,0.7,3,1.5,4.3,2.3c1.5,0.9,2.9,1.8,4.3,2.9c0,0.3,0,0.6-0.1,1c-0.1,0.6-0.2,1-0.5,1.3c-0.3,0.4-0.9,0.6-1.5,0.6
			c-0.7,0-1.5-0.2-2.4-0.5C158.8,27.9,156.9,26.5,155.6,24.6L155.6,24.6z M146.5,21c0.6-0.2,1.1-0.6,1.3-1.1c0.2-0.5,0.3-1,0.3-1.7
			c2.5,0.6,4.9,1.5,7.2,2.5c0.1,0.2,0.1,0.5,0.2,0.7c0.1,0.6,0.1,1.2,0,1.7c-0.1,0.5-0.3,0.9-0.7,1.2c-0.2,0.2-0.6,0.3-1,0.4
			c-1.2,0.2-2.9,0-4.4-0.8C148.2,23.3,147.2,22.3,146.5,21L146.5,21z M147.2,17.9c0.1,0.7,0.1,1.2-0.1,1.6c-0.2,0.4-0.6,0.6-1,0.8
			c-0.5,0.2-1.1,0.2-1.8,0.1c-1.7-0.2-3.8-1.1-5.3-2.6c0.8-0.2,1.7-0.4,2.5-0.6C143.4,17.3,145.3,17.5,147.2,17.9L147.2,17.9z
			 M174.8,22.2c0.5,0.2,1,0.4,1.4,0.5c1.6,0.4,3.9,0.4,5.2-0.7c0.5,0.3,0.9,0.5,1.3,0.8c0,0.3-0.1,0.6-0.2,0.9
			c-0.2,0.4-0.5,0.6-1,0.8c-0.5,0.2-1.1,0.2-1.8,0.1C178.1,24.3,176.2,23.5,174.8,22.2C174.8,22.2,174.8,22.2,174.8,22.2L174.8,22.2
			z M166.7,24.6c-2-1.5-4.1-2.8-6.3-4.1c0.4-0.8,1.2-2.6,1.7-5.3c1-1.4,2.6-2.8,4.4-0.7c2.8,3.2,0.6,9.5,0.4,10.2
			C166.9,24.6,166.8,24.6,166.7,24.6L166.7,24.6z M79.8,325.2c1.4-2.5-0.2-6.7-1.9-6.6c-1.6,0.1-6.8,5.7-6.3,6.6
			C72.2,326.2,79.8,325.2,79.8,325.2L79.8,325.2z M116.3,327.3c1.4-2.5-0.2-6.7-1.9-6.6c-1.6,0.1-6.8,5.7-6.3,6.6
			C108.6,328.3,116.3,327.3,116.3,327.3L116.3,327.3z M96,327.3c0.2-0.4,0.3-0.8,0.4-1.2c0.5-2.5-0.9-5.5-2.3-5.4
			c-1.2,0.1-4.6,3.5-5.9,5.4C86.4,328.8,94.8,327.4,96,327.3L96,327.3z M32.7,81.4c3.1,0.9,7.1,3.2,7.6,9.2c0.4,4.6,1.2,7.3,1.8,9
			c0.6,2.6,1.7,3.9,2.8,5.3c0.8,1,1.7,2.1,2.6,3.9c0.5,1,0.9,2.1,1.2,3.1c0.6,2.2,0.7,4.4-0.1,6.5c-0.7,2-2.3,3.9-5.1,5.2
			c-0.3,0.2-0.7,0.3-1,0.4c-1.1-0.5-1.9-1.6-2.2-2.3c0.1,1.1,0.5,2.4,2.3,3.2c1,0.4,2,0.9,3.1,1.4c6.9,4.9,11,10.5,12.4,16.8l-0.1,0
			c-0.4,0-0.8,0-1.2,0.1c0.3-2.9-0.5-4.9-1.7-6.1c-0.7-0.6-1.5-1-2.4-1.1c-0.9-0.1-1.8,0-2.8,0.5c0,0-0.1,0-0.1,0.1
			c-1.2-2.6-3.1-4.8-5.6-6.4c-1.3-0.8-2.7-1.6-3.8-2.6c-0.7-0.6-1.3-1.2-1.7-1.8c0-0.1-0.1-0.1-0.1-0.2c-1.3-2.1-1-4.1-0.2-5.1
			c-0.4,0.4-0.8,1.1-1,2.1c-0.1,0.3-0.1,0.5-0.1,0.8c-1.6-0.8-5-3.1-7.4-8.6c-2.1-4.9-0.5-8.6,1.5-13.4c1-2.4,2.2-5.1,3-8.3
			c1.3-5,1.1-8.1-0.3-10.1C33.7,82.3,33.3,81.8,32.7,81.4L32.7,81.4z M37.2,124.2c0,0.4,0.1,0.7,0.2,1c-12.1-2.3-12-10.3-11.9-17
			c0-2.8,0.1-5.4-0.7-7.4c0.3-2.4,1.2-5.6,4.1-8.1c5.2-4.5,0-11.9,0-11.9s0.4,0,1.1,0.1c1.5,0.5,2.7,1.3,3.4,2.4
			c1.2,1.8,1.4,4.8,0.2,9.5c-0.8,3.2-1.9,5.8-3,8.2c-2.1,4.9-3.7,8.8-1.5,14C31.7,121.2,35.7,123.5,37.2,124.2L37.2,124.2z
			 M50,136.8c0,0.1,0.1,0.1,0.1,0.2C50,137,50,136.9,50,136.8L50,136.8z M50.1,137.2c0,0,0.1,0,0.1-0.1c0.8-0.4,1.6-0.5,2.4-0.4
			c0.7,0.1,1.4,0.4,1.9,0.9c1.1,1,1.7,2.9,1.4,5.5c0,0.1,0,0.1,0,0.2c-0.2,0.1-0.3,0.1-0.5,0.2c-1.3,0.6-2.7,1.7-3.7,3.2
			C51.8,143.4,51.4,140.1,50.1,137.2L50.1,137.2z M51.7,147.6c0,0.1,0,0.2,0,0.3C51.7,147.8,51.7,147.7,51.7,147.6L51.7,147.6z
			 M51.7,148.1c0,0.1,0,0.3,0,0.4C51.7,148.4,51.7,148.2,51.7,148.1L51.7,148.1z M51.7,148.5c1.1-2.1,2.6-3.5,4.1-4.1
			c0.8-0.3,1.5-0.5,2.2-0.5c0.1,0,0.2,0,0.3,0c0.5,2.9,0.5,5.9,0,9c-1.6,0.6-3.4,1.9-4.9,4c0.3-1.8,0-3.2-0.7-4.2
			c-0.3-0.5-0.8-0.9-1.3-1.1C51.5,150.5,51.6,149.5,51.7,148.5L51.7,148.5z M59.1,144L59.1,144c0-0.2-0.1-0.4-0.1-0.5l0-0.1l0,0
			c0-0.1,0-0.2,0-0.2l0,0c-1.2-5.8-4.5-11.1-10.7-15.7c3.2,1.7,6.1,3.7,8.2,6.7c2,2.8,3.7,7,4.5,12.1l0,0l0,0l0,0
			c0,0.3,0.1,0.6,0.1,0.9l0,0v0c0,0.1,0,0.2,0,0.3l0,0v0c0,0.1,0,0.3,0,0.4l0,0l0,0l0,0.1c0,0.2,0,0.4,0.1,0.6l0,0
			c0.3,3.8,0,8.1-1.1,12.6l0,0l0,0c-0.6,2.6-1.6,5.3-2.8,8l0,0c-0.1,0.2-0.2,0.5-0.3,0.7l0,0l0,0c-1,2.2-2.3,4.4-3.8,6.7l0,0l0,0
			l0,0l0,0l0,0l0,0l0,0l0,0l0,0l0,0l0,0l0,0l0,0l0,0l0,0l0,0l0,0l0,0l0,0l0,0l0,0l0,0l0,0l0,0l0,0l0,0l0,0l0,0l0,0l0,0l0,0.1l0,0
			l0,0l0,0l0,0c-4.5,6.8-8.5,13.4-11.1,20.2c-0.3-0.8-1.1-1.6-1.6-2.2c-0.6-0.6-1.2-1.2-1.9-1.8c-0.2-0.1-0.3-0.2-0.5-0.3
			c0.3-0.7,0.6-1.3,0.9-2l0,0l0,0l0,0l0,0l0,0l0,0l0,0l0,0l0,0l0-0.1l0,0l0,0l0,0l0,0c0.1-0.2,0.2-0.4,0.3-0.7v0
			c1.1-2.1,2.3-4.2,3.6-6.4h0c0.2-0.3,0.3-0.5,0.5-0.8h0c0.9-1.4,1.8-2.8,2.8-4.3l0,0l0,0l0,0l0,0l0,0l0,0l0,0l0,0l0,0l0,0l0,0l0,0
			l0,0l0,0l0,0l0,0l0,0l0,0l0,0l0,0l0,0l0,0l0,0l0,0l0,0l0,0l0,0l0,0l0,0l0,0l0,0l0,0l0,0l0,0l0,0l0,0l0,0l0,0l0,0l0,0l0,0l0,0l0,0
			l0,0l0,0l0,0l0,0l0,0l0,0l0,0l0.1-0.1l0,0l0,0l0,0l0,0l0,0l0,0l0,0l0,0l0,0l0,0l0,0l0,0l0,0l0,0l0,0l0,0c1.4-2,2.8-4.1,4.3-6.4
			c0.3-0.5,0.7-1,1-1.5l0,0l0,0c0.1-0.1,0.1-0.2,0.2-0.4c0.1-0.1,0.1-0.2,0.2-0.3l0,0l0,0l0.1-0.2h0c0.7-1.1,1.3-2.3,1.9-3.4v0
			c0.1-0.1,0.1-0.2,0.2-0.3c0-0.1,0.1-0.2,0.1-0.3c0.1-0.2,0.1-0.3,0.2-0.5c0-0.1,0.1-0.2,0.1-0.3c0.1-0.1,0.1-0.3,0.2-0.4v0
			c1.4-3,2.5-6.1,3-9.2l0,0c0-0.1,0-0.2,0-0.2l0,0c0-0.1,0-0.1,0-0.2c0-0.2,0.1-0.3,0.1-0.5l0,0C59.5,149.8,59.5,146.9,59.1,144
			L59.1,144z M51.3,151.7c0,0.1,0,0.2,0,0.2C51.3,151.9,51.3,151.8,51.3,151.7L51.3,151.7z M51.2,152.4c0.3,0.2,0.6,0.4,0.8,0.7
			c0.8,1.2,1,3.1-0.1,5.7c-0.5-0.1-1.1,0-1.7,0.1c-0.3,0.1-0.6,0.1-0.9,0.2C50.1,157,50.7,154.7,51.2,152.4L51.2,152.4z M49.2,159.3
			c0,0.1-0.1,0.2-0.1,0.3C49.1,159.5,49.1,159.4,49.2,159.3L49.2,159.3z M49,159.7c0,0.1,0,0.1-0.1,0.2C49,159.8,49,159.8,49,159.7
			L49,159.7z M48.8,160.1c0.5-0.2,1-0.4,1.5-0.4c0.6-0.1,1.1-0.1,1.6,0c0,0,0.1,0.1,0.1,0.1c0.1,0.1,0.2,0.1,0.3,0
			c0.1,0,0.2,0.1,0.3,0.1c0.7,0.2,1.2,0.7,1.7,1.3c0.3,0.4,0.5,0.9,0.6,1.4c-0.8,1.6-1.7,3.2-2.7,4.8c-0.2,0.3-0.4,0.6-0.6,0.9
			c-1.2,0.5-2.5,1.3-3.7,2.5c0.6-1.7,0.6-3.2,0.2-4.2c-0.3-0.8-0.9-1.4-1.6-1.7c-0.1,0-0.1,0-0.2-0.1
			C47.3,163.3,48.1,161.7,48.8,160.1L48.8,160.1L48.8,160.1z M55.5,161.4c-0.1-0.3-0.3-0.6-0.4-0.8c-0.5-0.7-1.2-1.3-2.1-1.6l0,0
			c1.6-2.8,3.4-4.4,5.2-5.2C57.5,156.3,56.7,158.8,55.5,161.4L55.5,161.4z M46.3,164.9c-0.1,0.1-0.1,0.2-0.2,0.3
			C46.1,165,46.2,164.9,46.3,164.9L46.3,164.9z M45.8,165.5c0.1,0,0.2,0.1,0.3,0.1c0.5,0.2,1,0.7,1.2,1.3c0.5,1.2,0.3,3.1-1,5.6
			c0,0.1,0,0.1,0,0.2c-0.2,0.3-0.4,0.6-0.6,0.9c-0.6-0.4-1.4-0.5-2.3-0.5c-2,0.1-4.7,1.2-7.5,3.6c0-0.1,0-0.1,0.1-0.2
			C40,172.7,43.3,169.2,45.8,165.5L45.8,165.5z M34.5,177.7c0,0.1-0.1,0.2-0.1,0.3c-0.2,0.2-0.5,0.5-0.7,0.7
			c-0.1,0.1-0.1,0.2-0.1,0.2c-0.1,0-0.3,0-0.4-0.1C33.6,178.5,34,178.1,34.5,177.7L34.5,177.7z M32.2,179.7c0.8-0.1,1.4,0,2,0.3
			c0.5,0.3,0.9,0.7,1.2,1.2c0.5,1.2,0.3,3-1.2,5.3c0,0,0,0,0,0.1c-2.3,2-4.5,4.7-5.8,7.5c-0.2-1.9-0.7-3.3-1.4-4.2
			c-0.9-1.1-2.1-1.6-3.4-1.7c-0.1,0-0.2,0-0.4,0c2.6-2.8,5.2-5.2,7.5-7.2C31.2,180.6,31.7,180.2,32.2,179.7L32.2,179.7z M34.1,187.7
			c2.6-2.5,5.1-3.8,7.1-4.2c-1,1.6-2,3.3-2.9,5c-0.5-0.5-1.1-0.8-1.7-1C35.9,187.3,35,187.4,34.1,187.7L34.1,187.7z M41.8,182.6
			c-1.7,0.2-3.8,1-6.1,2.7c0.8-1.8,0.8-3.3,0.3-4.4c-0.3-0.7-0.9-1.3-1.6-1.6c-0.1,0-0.1-0.1-0.2-0.1c0.2-0.2,0.4-0.4,0.6-0.6
			c0,0,0.1,0,0.1-0.1c3.2-3.2,6.2-4.6,8.3-4.7c0.8,0,1.5,0.1,2,0.5c0.5,0.3,0.8,0.8,1,1.4c0,0.1,0,0.1,0,0.2
			C44.8,178.2,43.3,180.4,41.8,182.6L41.8,182.6z M47,175.1c-0.2-0.4-0.4-0.8-0.7-1.1c1.5-2.1,3-3.5,4.5-4.4
			C49.5,171.5,48.2,173.3,47,175.1L47,175.1z M43.7,101.4c-0.1-0.8-0.2-2.2-0.2-4.3c0-3.1,3.3-4.1,3.3-4.1c-0.9,4.2,4.4,4.4,7.3,11
			c3.1,7.1,4.1,17.8-5,22.9c-1.6-0.8-3.4-1.6-5.4-2.4c0.1-0.1,0.2-0.1,0.3-0.2c3-1.4,4.7-3.4,5.5-5.6c0.8-2.2,0.7-4.7,0.1-7
			c-0.3-1.1-0.7-2.2-1.2-3.3c-0.9-1.8-1.8-3-2.7-4C44.9,103.5,44.2,102.6,43.7,101.4L43.7,101.4z M37.7,126.2
			c0.3,0.6,0.6,1.2,1.1,1.7c0.5,0.6,1,1.1,1.6,1.6c-7.7,0.6-18-0.5-20.7-10c-2.2-7.9,2.6-14.3-1.5-18.9c-1.1-1.3-1.2-1.3-1.2-1.3
			s4.7-0.3,6.3,2.1c0.7,1.1,1.1,1.8,1.3,2.1c0.1,1.4,0.1,2.9,0.1,4.6C24.5,115.4,24.4,123.8,37.7,126.2L37.7,126.2z M85,290.3
			c-2.2-5.5-3.6-11.4-3.7-17.1c-0.4,0.1-0.7,0.2-0.9,0.2c-3.4,0.3-6.9,0.5-10.3,0.4c0.2,5,1.2,9.9,3.1,14.5c0.5,1.1,1,2.2,1.6,3.2
			C78.2,291.3,81.6,290.9,85,290.3L85,290.3z M74.2,291.5c-6.1,0.3-12.2-0.2-18.3-1.3c0-0.2-0.1-0.3-0.1-0.5
			c-1.4-5.8-1.5-11.7-0.4-17.6c4.6,0.9,9.4,1.4,14.2,1.6c0.2,5.1,1.2,10.1,3.2,14.7C73.2,289.5,73.6,290.5,74.2,291.5L74.2,291.5z
			 M55.4,290.1c-5.3-1-10.6-2.6-15.6-4.7c-0.2-1.1-0.3-2.2-0.4-3.4c-0.4-4.8,0-9.7,1.1-14.4c4.5,1.9,9.4,3.4,14.4,4.4
			c-1.1,5.9-1,11.9,0.4,17.8C55.3,289.9,55.3,290,55.4,290.1L55.4,290.1z M39.3,285.2c-4.9-2.1-9.6-4.8-13.9-8
			c-0.2-2.1-0.3-4.3-0.1-6.5c0.2-3.6,1-7.2,2.2-10.6c3.8,2.9,8,5.4,12.5,7.3c-1.1,4.8-1.5,9.7-1.1,14.6
			C39,283.1,39.1,284.1,39.3,285.2L39.3,285.2z M24.8,276.7c-5.4-4.2-10.2-9.2-14-15.1c0.1-0.3,0.1-0.7,0.2-1
			c1-4.5,2.8-8.7,5.2-12.6c2.9,4.5,6.6,8.4,10.8,11.8c-1.3,3.5-2.1,7.2-2.3,10.9C24.6,272.7,24.6,274.7,24.8,276.7L24.8,276.7z
			 M10.3,260.9c-1-1.7-2-3.4-2.8-5.2c-1.5-3.1-2.6-6.1-3.4-9.2c1.5-4.3,3.6-8.3,6.3-12c0.7,2.6,1.5,5,2.6,7.4l0,0
			c0.1,0.3,0.2,0.5,0.3,0.8l0,0c0.8,1.6,1.6,3.2,2.6,4.7c-2.5,4-4.3,8.4-5.4,13.1C10.4,260.6,10.3,260.7,10.3,260.9L10.3,260.9z
			 M3.8,245.5c-3.4-14.2,0.1-27.6,6.2-39l0,0l0,0l0,0l0,0l0,0l0-0.1h0c1.9-3.5,4-6.8,6.3-9.9c0.2,0.2,0.5,0.3,0.7,0.5
			c1.5,1.4,2.4,4,1.9,7.8c-0.6,0.2-1.2,0.4-1.8,0.8c-1.6,1.1-2.9,3.1-3.1,5.8c-0.7-2.2-1.8-3.7-3-4.5c0.2-1,0.4-2,0.7-3
			c-1.8,5.4-2.7,9.5-2.9,15.3c-0.2,5.2,0.3,10.1,1.4,14.6C7.5,237.4,5.4,241.3,3.8,245.5L3.8,245.5z M16.8,195.8
			c1.9-2.5,3.8-4.8,5.7-6.9l-0.2,0.2c0.2,0,0.4,0,0.6,0c0.2,0,0.4,0,0.5,0c1.1,0.1,2.1,0.5,2.8,1.4c0.7,1,1.2,2.4,1.3,4.6
			c0,0.5,0,1,0,1.6c-0.7,0.1-1.5,0.2-2.3,0.6c-2.1,0.9-4.2,2.8-5.4,5.6c0-3-0.9-5.2-2.3-6.4C17.3,196.2,17,196,16.8,195.8
			L16.8,195.8z M38,189.3c-1.9,3.7-3.3,7.8-4.2,12.7c-0.4-1.8-1.1-3.1-2.1-4c-0.9-0.7-1.9-1.1-3-1.3c-0.1,0-0.2,0-0.3,0
			c0.1-2.8,3.4-7.2,5.9-8.2l0,0c0.8-0.3,1.5-0.4,2.2-0.2C37,188.5,37.5,188.8,38,189.3L38,189.3z M35.1,201.5
			c0.9-0.2,2.5-0.5,3.4-0.8c0.7-0.2,1.6-0.4,2.4-0.9c-0.7,2.2-1.2,4.3-1.6,6.5c-0.2-0.1-0.4-0.2-0.5-0.4c-0.8-0.6-2.9-1.5-4-2.1
			c0.1-0.6,0.2-1.2,0.3-1.8l0,0l0,0l0,0l0,0l0,0l0,0l0,0l0,0l0,0l0,0l0,0l0,0l0,0l0,0l0,0l0,0l0,0l0,0l0,0l0-0.1l0,0l0,0l0,0l0,0
			l0,0l0,0l0,0l0,0l0,0L35.1,201.5L35.1,201.5L35.1,201.5L35.1,201.5L35.1,201.5L35.1,201.5z M33.2,205.6c0,0.2-0.1,0.5-0.1,0.7
			c-0.1,0.5-0.1,1.1-0.1,1.6c-0.2,1.5-0.3,3.1-0.2,4.5c0,1.2,0,2.4,0.1,3.5c-0.5-1-1.1-1.8-1.8-2.3c-0.8-0.7-1.8-1.1-2.7-1.1
			c-0.7,0-1.3,0.1-2,0.3c0.7-3.4,2.2-5.6,4-6.6c0.8-0.5,1.6-0.7,2.4-0.6C32.9,205.5,33,205.5,33.2,205.6L33.2,205.6z M34,222.8
			c0.4,1.6,0.9,3.1,1.4,4.5c-1-1.2-2.1-1.9-3.2-2.4c-1-0.4-2.1-0.5-3-0.3c-0.9,0.2-1.7,0.6-2.4,1.3c-1.4-2.7-3.1-4.3-4.9-5.1
			c0.5-2.9,2.7-7.9,6.4-7.6c0.8,0.1,1.5,0.4,2.2,0.9c0.9,0.8,1.9,2.1,2.5,4c0.2,1.5,0.4,2.8,0.7,4.2c0,0.1,0,0.2,0,0.2
			C33.9,222.7,33.9,222.8,34,222.8L34,222.8z M36.6,225.7c-0.7-2-1.3-4.3-1.7-6.7c0.7,0.1,6.2,0.5,8.5,1.3
			C42.9,222.8,38.1,225.1,36.6,225.7L36.6,225.7z M44,220.6c0.2,0.1,0.4,0.2,0.4,0.4c0.5,1.3-6.6,7-6.6,7c-0.4-0.5-0.7-1.1-1-1.7
			C38.3,225.6,43.3,223.3,44,220.6L44,220.6z M38.7,230.3c-0.1-0.2-0.2-0.3-0.3-0.5c0.4-0.2,0.8-0.7,1.1-0.9
			c0.8-0.6,1.5-1.3,2.2-1.9c0.3,0.7,0.6,1.4,0.9,2.1c-1.1,0.5-2.1,0.9-3.2,1.5c-0.2,0.1-0.3,0.2-0.5,0.3
			C38.9,230.7,38.8,230.5,38.7,230.3L38.7,230.3L38.7,230.3z M38.9,233.6c0.8,1,1.6,2,2.5,3c0,0.3,0,0.6,0,0.8c0,2,0.9,4.1,2.8,5.9
			c-3.2-1.2-6-1-7.9,0c-0.4,0.2-0.8,0.5-1.2,0.8c-0.9-2.3-2.2-4-3.5-5.1c0.1-0.1,0.1-0.2,0.1-0.3c0-0.5,0.1-0.9,0.2-1.3
			c0.1-0.5,0.3-0.9,0.5-1.4c0.7-1.3,1.8-2.3,3.6-2.6C36.7,233.3,37.7,233.3,38.9,233.6L38.9,233.6z M42.1,237.3
			c1.7,1.6,3.6,3.1,5.6,4.3c-0.2,0.1-0.4,0.3-0.6,0.4c-0.6,0.5-1,1-1.4,1.6C43.3,241.8,42.2,239.5,42.1,237.3L42.1,237.3L42.1,237.3
			z M48.6,242.1c3.2,1.8,6.7,3.1,10.5,4c0.4,0.4,0.8,0.7,1.3,1.1c-3.3-0.2-5.8,0.8-7.4,2.2c-0.6,0.6-1.1,1.2-1.4,1.9
			c-3.2-0.9-5-2.6-5.4-4.4c-0.4-1.5,0.3-3.3,1.5-4.2C48,242.5,48.3,242.3,48.6,242.1L48.6,242.1z M60.9,246.6c0.7,0.1,1.3,0.3,2,0.4
			c-0.2,0.2-0.4,0.3-0.6,0.5C61.8,247.1,61.3,246.9,60.9,246.6L60.9,246.6z M64.2,247.2c3.2,0.5,6.6,0.7,10.1,0.8
			c0.8,0.5,1.7,1,2.9,1.4c-3.7,0.8-6.2,2.3-7.5,4c-0.7,0.9-1,1.8-1.1,2.7l0,0.1c-0.4,0-0.8,0-1.1,0c-0.1,0-0.1-0.1-0.2-0.1
			c-3.2-0.6-5.1-1.9-5.8-3.3c-0.4-0.7-0.5-1.4-0.3-2.1c0.1-0.7,0.6-1.4,1.2-2.1c0.1-0.1,0.1-0.1,0.2-0.2c0.1,0,0.2-0.1,0.2-0.2
			C63.2,247.8,63.6,247.4,64.2,247.2L64.2,247.2z M75.9,247.9c0.9,0.4,1.9,0.8,3.2,1.1c0.3,0,0.7-0.1,1-0.1c0.1,0,0.2,0,0.3,0.1
			c0.2-0.4,0.4-0.8,0.6-1.2c-0.4,0-0.7,0-1,0.1C78.6,247.9,77.2,247.9,75.9,247.9L75.9,247.9z M81.8,245.7c-0.4-1.5-1.4-4.5-3.7-6.8
			c-1.6,1.4-4.2,6.7-4.2,6.7S77.9,246.2,81.8,245.7L81.8,245.7z M78.6,238.6c2.4,2.4,3.4,5.6,3.8,7.1c0.8-0.1,1.6-0.3,2.4-0.5
			C84.8,245.2,80.1,238.5,78.6,238.6C78.6,238.6,78.6,238.6,78.6,238.6L78.6,238.6z M82.2,247.7c0,0-0.1,0.1-0.1,0.1
			c-0.6,0.7-0.9,1.4-1.1,2.1c-0.1,0.7,0,1.4,0.3,2c0.7,1.3,2.3,2.4,4.9,2.9c1.4-2.4,2.9-4.6,4.6-6.8c0.3-0.4,0.6-0.8,1-1.2
			C89.4,247.1,85,247.4,82.2,247.7L82.2,247.7z M94.5,243.8c-0.9,0.5-1.7,1.1-2,1.1c-1,0.1-3.1,0.3-5.3,0.5
			c-0.4-0.5-0.9-0.9-1.1-1.2c-0.5-0.7-1-1.4-1.6-2.1c5.3-0.8,10.3-1.8,14.3-2.8C97.4,240.7,95.9,242.2,94.5,243.8L94.5,243.8z
			 M35.6,199.7c0-0.2,0.1-0.5,0.1-0.7c0.4-1.5,0.9-3,1.4-4.4c0.1-0.2,0.1-0.3,0.1-0.3s3.4,3,3.1,3.8
			C40.1,198.9,35.6,199.7,35.6,199.7L35.6,199.7z M34.5,213.1c-0.1-0.6-0.1-1.1-0.1-1.7c1.2,0,4.3-0.3,5.7-1.5
			C39.5,211,34.5,213.1,34.5,213.1L34.5,213.1z M34.5,210.8c0.1-2.7,0.6-5,0.6-5s3.9,2.1,4.9,3.4C39.1,210.5,35.8,210.7,34.5,210.8
			L34.5,210.8z M47.4,238.5c-0.9-0.5-1.8-1-2.6-1.7c0.2-0.2,3.8-3.6,4-7.3C49.4,231.4,47.4,238.5,47.4,238.5L47.4,238.5z
			 M44.4,236.4c-2.5-2.1-4.1-4.4-4.1-4.4s6.1-3.1,8-2.9C48.4,232.8,44.4,236.4,44.4,236.4C44.4,236.4,44.4,236.4,44.4,236.4
			L44.4,236.4z M59.2,244c-0.8-0.2-1.7-0.4-2.5-0.7c0.1-0.3,0.3-0.9,0.5-1.7c0.1,0,0.3,0.1,0.4,0.1v0c-0.1,0-0.3-0.1-0.4-0.1
			c0.4-1.8,0.7-4.4-0.3-6.4c0.2,0,0.3,0,0.4,0C58.5,235.8,59.2,244,59.2,244L59.2,244z M56.1,243.1c-3.5-1.2-6.6-2.9-6.6-2.9
			s4.5-3.9,6.7-4.8c1,1.9,0.7,4.4,0.3,6.1c-0.9-0.3-1.8-0.6-2.6-0.9l0,0c0.8,0.3,1.7,0.6,2.6,0.9C56.4,242.2,56.2,242.8,56.1,243.1
			L56.1,243.1z M71.7,245.8c-0.7,0-1.5,0-2.3,0c0-1-0.1-5-2.6-8c0.2-0.1,0.4-0.2,0.6-0.2C68.8,237.9,71.7,245.8,71.7,245.8
			L71.7,245.8z M68.8,245.7c-3.9-0.3-7.5-1.2-7.5-1.2s3.2-4.7,5.1-6.4C68.7,240.9,68.8,244.8,68.8,245.7L68.8,245.7z M38.8,212.9
			c0,1.6,0.1,3.2,0.4,4.9c-1.4-0.2-2.8-0.3-4.2-0.4c-0.1,0-0.2,0-0.3,0c0,0,0-0.1,0-0.1c-0.1-0.7-0.1-1.4-0.2-2.1l0,0
			c1.1-0.4,2.8-1.4,3.8-2C38.4,213.1,38.6,213,38.8,212.9L38.8,212.9z M49.3,238c0.1,0,0.1,0.1,0.2,0.1c-0.1,0.1-0.2,0.1-0.2,0.2
			C49.2,238.2,49.3,238.1,49.3,238L49.3,238z M60.7,242.4L60.7,242.4L60.7,242.4L60.7,242.4L60.7,242.4z M72.5,243.2l0.4,0
			C72.8,243.2,72.6,243.2,72.5,243.2L72.5,243.2L72.5,243.2z M72.5,243.2c0.2,0,0.4,0,0.6,0l0,0l0.1,0c-0.2,0.3-0.3,0.6-0.4,0.9
			C72.7,243.7,72.6,243.4,72.5,243.2L72.5,243.2z M81.3,271.6c0-1.8,0.2-3.6,0.5-5.4c-1.4-0.5-2.4-1.2-3-2c-0.6-0.8-0.8-1.6-0.8-2.5
			c0-0.1,0-0.1,0-0.2c-5.1,0.5-8.6,2.4-10.2,4.4c-0.6,0.7-0.9,1.5-1,2.2c-0.1,0.7,0.1,1.4,0.6,2c0.6,0.9,1.8,1.6,3.5,2
			c3.1,0,6.2-0.1,9.3-0.5C80.4,271.6,80.8,271.6,81.3,271.6L81.3,271.6z M68.5,272.1c-6-0.2-11.9-1-17.5-2.4c-1.8-1-2.8-2.3-3.3-3.5
			c-0.3-0.8-0.3-1.6,0-2.3c0.2-0.8,0.7-1.5,1.5-2c1.8-1.4,4.9-2.2,9.1-1.5c-0.2,0.5-0.4,1-0.4,1.5c-0.1,0.9,0.1,1.7,0.5,2.5
			c1,1.8,3.5,3.4,7.5,3.6c0,0,0.1,0,0.1,0c0,0.1,0,0.2,0,0.3c-0.1,0.9,0.2,1.8,0.7,2.5C67.2,271.2,67.7,271.6,68.5,272.1L68.5,272.1
			z M48.8,269c-3.6-1-7.1-2.3-10.3-3.9c1.9-1,4.7-1.4,8.3-0.7c-0.1,0.6,0,1.3,0.2,2C47.2,267.3,47.8,268.2,48.8,269L48.8,269z
			 M31,261c-1-0.7-2-1.4-3-2.1c1.2,0.8,2.5,1.6,2.7,1.5C30.8,260.6,30.9,260.8,31,261L31,261z M24.9,256.3c-4.4-3.9-8-8.6-10.7-14
			l0,0c0.8-0.3,1.6-0.3,2.6-0.1c2.3,0.6,5,2.7,7.1,6.8c0.1,0.2,0.3,0.3,0.5,0.2c-0.3,0.3-0.5,0.7-0.7,1.1c-0.4,0.8-0.5,1.7-0.4,2.7
			C23.4,254,23.9,255.2,24.9,256.3L24.9,256.3z M13.8,241.5c-0.1-0.2-0.2-0.5-0.3-0.7C13.6,241,13.7,241.2,13.8,241.5L13.8,241.5
			L13.8,241.5z M12.2,237.5c-1.4-4-2.3-8.3-2.7-13c0.1,0,0.2,0,0.3,0.1c2.1,0.5,4.2,2.5,5.4,6.5c0,0,0,0.1,0,0.1
			c-0.4,0.3-0.8,0.7-1.2,1.2c-1,1.4-1.5,3.5-1.1,6C12.6,238.1,12.4,237.8,12.2,237.5L12.2,237.5z M9.4,217.1c0-0.3,0-0.6,0-0.9
			c0.2-3.1,0.6-5.7,1.2-8.4c1.3,1.1,2.4,3,3,5.9c-0.7,0.2-1.4,0.5-2,0.9C10.7,215.2,10,216,9.4,217.1L9.4,217.1z M9.3,219.7
			c0.5-2,1.5-3.5,2.8-4.4c1.5-1,3.5-1.3,5.1-0.5c1.7,0.8,3.2,2.7,3.9,5.8c-0.9-0.2-1.8-0.2-2.6,0c-0.9,0.3-1.8,0.8-2.4,1.7
			c-1,1.2-1.6,3.1-1.5,5.4c-1.3-2.2-3-3.5-4.6-3.9c-0.2,0-0.3-0.1-0.5-0.1C9.3,222.3,9.3,221,9.3,219.7L9.3,219.7z M32.8,262.2
			c-0.8-1-1.3-2-1.5-3c-0.2-0.9-0.1-1.8,0.2-2.6c0.3-0.8,0.8-1.5,1.6-2c1.7-1.3,4.6-1.7,8.5-0.5c0,0,0,0,0.1,0
			c-0.4,0.5-0.6,1-0.8,1.5c-0.3,0.9-0.3,1.9,0.1,2.8c0.7,2,2.6,3.9,6,5.2l0,0c-4.1-0.7-7.3-0.1-9.4,1.1
			C35.9,263.9,34.3,263.1,32.8,262.2L32.8,262.2z M81.9,265.4c0.3-1.2,0.6-2.4,1-3.6c0.7-1.9,1.5-3.8,2.5-5.6
			c-2.7,0.8-4.6,2-5.6,3.4c-0.6,0.7-0.9,1.5-0.9,2.2c-0.1,0.7,0.1,1.4,0.6,2C80,264.4,80.8,265,81.9,265.4L81.9,265.4z M44.5,232.5
			c-0.1-0.2-0.3-0.4-0.4-0.7C44.3,232.1,44.4,232.3,44.5,232.5L44.5,232.5z M37.4,232.5c-0.6,0-1.2,0-1.7,0.1
			c-2.1,0.3-3.5,1.5-4.2,3.1c-0.2,0.5-0.4,1-0.6,1.5l0,0c-0.1,0.4-0.2,0.8-0.2,1.3c-0.6-0.4-1.1-0.6-1.7-0.8
			c-0.6-0.2-1.1-0.3-1.7-0.3c0-0.1,0-0.1,0-0.2c-0.5-1.1-1.1-2-1.8-2.8c0.1-0.1,0.2-0.2,0.2-0.4c-0.5-3.4,0.2-5.9,1.6-7.3
			c0.6-0.6,1.3-1.1,2.1-1.2c0.8-0.2,1.7-0.1,2.5,0.3C34,226.5,36,228.7,37.4,232.5L37.4,232.5z M37.3,252.4
			c-2.2-1.5-4.3-4.5-2.5-7.2c0.4-0.6,1.5-1.1,1.8-1.2c2-1.1,5.2-1.1,8.8,0.7c-0.2,0.8-0.2,1.6,0,2.4c0.4,1.6,1.7,3.1,3.8,4.2
			c-3-0.1-5.3,0.6-6.8,1.8c-0.1,0.1-0.3,0.2-0.4,0.4c0-0.1-0.1-0.2-0.3-0.3C40.1,252.7,38.6,252.5,37.3,252.4
			C37.3,252.5,37.3,252.5,37.3,252.4L37.3,252.4z M34.4,244.8c-0.1,0.1-0.2,0.3-0.3,0.4c-0.5,0.8-0.8,1.6-0.8,2.5c0,0.2,0,0.3,0,0.5
			c-3.2-1.3-6-1.1-7.8,0.1c-0.3,0.2-0.6,0.4-0.9,0.7c0-0.1,0-0.2,0-0.3c-0.4-0.8-0.9-1.6-1.4-2.3c0,0,0,0,0-0.1
			c-0.8-3.1-0.1-5.5,1.2-6.8c0.6-0.6,1.2-0.9,2-1.1c0.8-0.2,1.6-0.1,2.4,0.1C30.9,239.1,33,241.1,34.4,244.8L34.4,244.8z
			 M30.5,259.4c-4.2-2-6.1-4.4-6.4-6.5c-0.1-0.8,0-1.6,0.3-2.3c0.3-0.7,0.8-1.2,1.5-1.7c1.7-1.1,4.4-1.2,7.6,0.2
			c0.4,1.2,1.2,2.4,2.5,3.4c-1.4,0.2-2.5,0.6-3.4,1.3c-0.9,0.6-1.5,1.5-1.9,2.4C30.4,257.2,30.3,258.2,30.5,259.4
			C30.5,259.3,30.5,259.3,30.5,259.4L30.5,259.4z M47.2,262.8c-3.2-1.2-5-3-5.5-4.7c-0.3-0.8-0.3-1.6-0.1-2.3c0.2-0.7,0.7-1.4,1.4-2
			c1.6-1.3,4.4-2,8.3-1.4c-0.2,0.9-0.2,1.8,0.1,2.6c0.4,1.6,1.6,3.1,3.7,4.2c-2.8,0.1-5,0.8-6.4,2C48,261.6,47.5,262.2,47.2,262.8
			L47.2,262.8z M52.3,251.9c0.3-0.7,0.7-1.3,1.3-1.9c1.6-1.5,4.3-2.4,7.9-1.9c-0.6,0.7-1,1.4-1.2,2.2c-0.2,0.9-0.1,1.8,0.4,2.7
			c0.7,1.3,2.1,2.4,4.3,3.2c-3,0.4-5,1.6-6.2,3c0,0.1-0.1,0.1-0.1,0.2c-0.5-0.1-1-0.1-1.4-0.2c0,0,0,0-0.1,0c-3-1-4.6-2.7-5.1-4.5
			c-0.2-0.8-0.2-1.6,0-2.4c0.1-0.1,0.1-0.2,0.2-0.3C52.3,252,52.3,252,52.3,251.9L52.3,251.9z M66.2,267.1c-0.1-0.1-0.1-0.1-0.2-0.1
			c-3.7-0.2-5.9-1.5-6.9-3.2c-0.4-0.6-0.5-1.3-0.4-2c0.1-0.7,0.3-1.4,0.8-2c1.4-1.8,4.5-3.1,9.1-2.8c0.1,0.6,0.4,1.2,0.8,1.7
			c0.9,1.2,2.6,2.2,5,2.7c-3.5,0.9-6,2.4-7.3,4.1C66.7,265.9,66.4,266.5,66.2,267.1L66.2,267.1z M85.2,255.4
			c-2.4-0.6-3.9-1.8-4.6-3.2c-0.4-0.8-0.5-1.7-0.4-2.6l0,0c-0.3,0-0.7,0.1-1,0.1c0,0-0.1,0-0.1,0c-4.4,0.6-7.4,2.2-8.7,4
			c-0.6,0.7-0.9,1.5-0.9,2.2c0,0.7,0.2,1.4,0.7,2.1c1,1.4,3.2,2.4,6.6,2.6c0.1,0,0.2,0,0.2,0.1c0.4-0.1,0.9-0.1,1.3-0.2
			c0.2-0.6,0.5-1.1,0.9-1.6C80.3,257.6,82.3,256.3,85.2,255.4L85.2,255.4z M33.1,204.7c-0.1,0-0.1,0-0.2,0c-1-0.1-1.9,0.2-2.8,0.7
			c-1.7,1-3.2,3-4.1,6c-0.5-3.1-1.8-5.1-3.4-6c-0.8-0.5-1.6-0.7-2.5-0.7c1.1-3.4,3.3-5.7,5.6-6.6c0.7-0.3,2.1-0.6,2.9-0.5
			c0.9,0.1,1.8,0.4,2.5,1.1c1.2,1.1,2.1,2.9,2.1,5.6c0,0.1,0,0.1,0,0.2C33.1,204.5,33.1,204.6,33.1,204.7L33.1,204.7z M17.5,206.3
			c1.3-0.9,3.2-1.1,4.6-0.2c1.7,1,3.1,3.3,3.2,7.3c-1.6,1.1-3,3-3.8,5.8c-0.8-2.6-2.3-4.3-4-5.1c-0.9-0.4-1.9-0.6-2.8-0.6
			C14.5,210,15.7,207.5,17.5,206.3L17.5,206.3z M18.7,221.4c3.4-1,6.3,2.7,7.6,5.2c-1.1,1.5-1.8,3.9-1.4,6.9
			c-1.7-1.9-3.5-2.9-5.2-3.2c-1.1-0.2-2.2-0.2-3.2,0.2c-0.2,0.1-0.4,0.2-0.6,0.3c-0.1-0.4-0.2-0.7-0.4-1c0-0.1,0-0.1,0-0.2
			c-0.4-3.1,0.1-5.3,1.2-6.7C17.3,222.1,18,221.6,18.7,221.4L18.7,221.4z M22.1,244.8c-1.7-2-3.5-3.1-5.2-3.5
			c-0.8-0.2-1.6-0.2-2.3-0.1c-0.2-0.4-0.4-0.7-0.6-1c0-0.1,0-0.2,0-0.2c-1-3.1-0.6-5.6,0.5-7.2c0.5-0.7,1.3-1.3,2.1-1.6
			c0.8-0.3,1.8-0.4,2.8-0.2c2.4,0.5,5,2.5,7.1,6.4c-0.1,0-0.2,0-0.3,0.1c-0.9,0.2-1.7,0.6-2.4,1.3C22.6,240.1,21.8,242.2,22.1,244.8
			L22.1,244.8z M237.8,231.8c1.4,0.3,2.7,0.7,3.9,1.2c0.4,0.9,0.8,1.7,1.2,2.4c0,0,0,0.1,0,0.1c0.7,3.6,0,6.1-1.4,7.4
			c-0.6,0.6-1.3,0.9-2.1,1c-0.1,0-0.3,0-0.4,0C238.9,239.9,238.5,235.8,237.8,231.8L237.8,231.8z M238.9,245.3
			c0.1,0.3,0.2,0.5,0.3,0.8c0.3,2.8-0.1,4.9-0.9,6.4C238.7,250.1,238.9,247.7,238.9,245.3L238.9,245.3z M238.1,254.2L238.1,254.2
			c1.2-1.3,2-3.4,2-6.3c2,3.6,4.3,5.7,6.5,6.4c1.1,0.4,2.2,0.5,3.2,0.2c0.1,0,0.2,0,0.2-0.1c0.1,0.4,0.2,0.9,0.3,1.3
			c0,0.1,0,0.1,0,0.2c0.4,3.7-0.4,6.2-1.7,7.6c-0.6,0.6-1.3,1-2.1,1.1c-0.8,0.1-1.7-0.1-2.6-0.6c0,0-0.1,0-0.1-0.1
			c-0.1-0.1-0.2-0.1-0.3-0.2c-2.1-1.3-4.2-4.2-5.6-8.7C238,254.8,238.1,254.5,238.1,254.2L238.1,254.2z M237.6,256.8
			c1.4,3.9,3.4,6.4,5.4,7.7c-0.8,3.8-2.4,6.1-4.2,7.1c0,0-0.1,0-0.1,0c-0.2,0-0.3,0.1-0.4,0.3c-0.7,0.3-1.4,0.4-2,0.3
			c-0.8-0.1-1.7-0.5-2.4-1.2c-0.3-0.3-0.5-0.5-0.8-0.9C235.2,265.8,236.7,261.4,237.6,256.8L237.6,256.8z M232.7,270.9
			c0.2,0.2,0.4,0.5,0.6,0.7c0.9,0.8,1.9,1.3,2.9,1.4c0.6,0.1,1.2,0.1,1.8-0.1c-0.8,3.6-2.4,5.9-4.2,6.8c-0.8,0.5-1.7,0.6-2.5,0.5
			c-0.2,0-0.5-0.1-0.7-0.2c0-0.2-0.2-0.3-0.4-0.3c-0.1,0-0.2,0-0.3,0.1c-0.4-0.2-0.7-0.5-1.1-0.8c-0.2-0.2-0.5-0.5-0.7-0.7
			c0.6-0.8,1.2-1.7,1.7-2.5C230.9,274.2,231.8,272.6,232.7,270.9L232.7,270.9z M227.7,279c-2.2,2.9-4.6,5.6-7.3,8
			c0.3,0.2,0.6,0.3,0.9,0.4c0.7,0.2,1.4,0.3,2.2,0.1c0.1-0.2,0.3-0.2,0.5-0.2c0,0,0.1,0,0.1,0c2-0.7,4.1-2.7,5.7-6.2
			c0-0.2,0-0.4,0-0.6c-0.5-0.2-1-0.6-1.4-1C228.1,279.4,227.9,279.2,227.7,279L227.7,279z M240.4,301.8L240.4,301.8
			c-0.7-0.2-1.3-0.6-1.9-1.2c-1.7-1.7-2.8-4.9-2.4-9.5c1,0.1,2.1-0.1,3.1-0.4c2.2-0.8,4.2-2.6,5.5-5.4c-0.1,3.8,1.1,6.8,2.8,8.5
			c0.1,0.1,0.3,0.3,0.4,0.4C245.5,297,242.8,299.6,240.4,301.8L240.4,301.8z M248.5,293.4c-0.1-0.1-0.3-0.2-0.4-0.4
			c-1.8-1.9-3-5.2-2.4-9.7c0.8-0.1,1.6-0.3,2.4-0.8c1.6-1,2.8-3,3.2-5.9c0.8,3.2,2.2,5.3,3.9,6.5c0.1-0.2,0.2-0.4,0.3-0.6
			c-0.7,1.5-1.5,3-2.4,4.4C251.7,289.2,250.1,291.4,248.5,293.4L248.5,293.4z M255.5,282.4c-1.8-1.3-3.3-4-3.9-8.1
			c0.9-0.1,1.8-0.4,2.6-0.9c1.6-1.1,2.8-2.9,3.3-5.7c0.4,1.4,1,2.5,1.6,3.5c0.1-0.4,0.1-0.7,0.2-1.1
			C258.7,274.1,257.5,278.3,255.5,282.4L255.5,282.4z M259.4,269.9c-0.8-1.5-1.5-3.5-1.8-6c0.5,0.1,1.1,0,1.6-0.1
			c0.2-0.1,0.5-0.1,0.7-0.2c0-0.3,0-0.6,0-0.9c-0.3,0.1-0.6,0.2-0.9,0.3c-0.8,0.2-1.6,0.1-2.4-0.2c-2.3-0.9-4.6-3.6-5.8-8.6
			c0.6-0.3,1.1-0.8,1.5-1.3c1.1-1.4,1.6-3.7,1.2-6.6c1.4,2.3,2.9,4,4.4,5.1C259.8,256.9,260.4,263.3,259.4,269.9L259.4,269.9z
			 M257.4,249.8c-1.7-1.6-3.4-4-4.8-7.3c0,0,0.1,0,0.1,0c0.2-0.1,0.5-0.1,0.7-0.2C255,244.5,256.3,247.1,257.4,249.8L257.4,249.8z
			 M253.2,242l-0.1-0.1C253.1,241.9,253.1,242,253.2,242L253.2,242z M252.8,241.6c-0.1,0-0.2,0.1-0.3,0.1c-0.8,0.2-1.7,0.1-2.6-0.3
			c-2.3-0.9-5-3.5-7-8C246.7,235.3,250.1,238.1,252.8,241.6L252.8,241.6z M259.2,324.6c-1-2.5,0.2-6.7,1.4-6.6
			c1.2,0.1,5.1,5.7,4.7,6.6C264.9,325.6,259.2,324.6,259.2,324.6L259.2,324.6z M243.7,325.2c-1-2.5,0.2-6.7,1.4-6.6
			c1.2,0.1,5.1,5.7,4.7,6.6C249.4,326.2,243.7,325.2,243.7,325.2L243.7,325.2z M226,325.2c0,0,6.8,1,7.2,0c0.5-1-4.2-6.5-5.6-6.6
			C226.2,318.5,224.8,322.7,226,325.2L226,325.2z M197.9,139.3c2.4-0.1,5-0.9,7.5-2.6c8.5-5.9,8-12.6,13.4-16.4
			c4.7-3.3,15,5.4,23.6,19.8c-1.1,0.6-2.2,1.2-3.3,1.7c-4.4-7.8-8.8-13-11.1-14.4c-4-2.4-6.6-0.8-9.3,2.4c-2.4,1.9-4.2,5.7-6.6,8.2
			c-2.6,2.7-5.2,4.6-7.9,5.9c-0.2-0.1-0.5-0.2-0.7-0.4C201.7,142.7,199.8,141.1,197.9,139.3L197.9,139.3z M205.4,144.6
			c3.6-1.8,6.8-4.4,9.9-8.1c1.8,3,3.6,6.4,5.3,9.9c-2.1,0.2-4.1,0.3-6.1,0.3c-3.1-0.1-5.9-0.6-8.8-1.9
			C205.6,144.7,205.5,144.6,205.4,144.6L205.4,144.6z M221.9,146.2c-2.2-4.3-4.3-7.9-6.1-10.3c2.3-2.9,4.1-7.1,7.7-5.1
			c4,2.2,7.4,7,10.3,13c-1.4,0.4-2.8,0.8-4.3,1.1C227.1,145.4,224.5,145.9,221.9,146.2L221.9,146.2z M235.8,143.1
			c-3.2-6.4-7.1-11.5-11.5-13.9c-1.3-0.7-2.4-0.8-3.4-0.6c1.9-1.6,3.9-2.1,6.6-0.5c2.2,1.3,6.5,6.4,10.8,14
			C237.5,142.5,236.7,142.8,235.8,143.1L235.8,143.1z M253.6,173.2c1,9.2,0.2,16.1-1.6,17.1c-0.6,0.3-1,0.4-1.4,0.4
			c0.5-5.6,0.3-11.2-0.4-16.5C251.3,173.9,252.4,173.6,253.6,173.2L253.6,173.2z M249.3,174.4c0.7,5.2,0.9,10.5,0.4,16
			c-0.7-0.6-1-2-1.2-3.8c-0.6-4.3-0.9-7.1-2-11.5C247.5,174.8,248.4,174.6,249.3,174.4L249.3,174.4z M244,175.5l0,0.2
			c-0.1-0.1-0.2-0.1-0.3-0.2C243.8,175.5,243.9,175.5,244,175.5L244,175.5z M232.1,176.3c0.2,0.5,0.4,1.5,0.6,2.1
			c-0.7,1.7-1.1,2.3-4.8-2.4C229.3,176.2,230.7,176.3,232.1,176.3L232.1,176.3z M206.2,170c-0.2,0.1-0.5,0.3-0.7,0.5
			c-0.2-0.4-0.4-0.7-0.5-1.1C205.3,169.6,205.7,169.8,206.2,170L206.2,170z M103.9,130.1c-0.8-0.9-1.7-1.5-3.1-1.8
			c-4-0.7-10.1,4.7-15.9,12.4c-6.4,8.5-12.5,20-15.2,29.3c-3.2,11.2-2.7,15.7-2.5,18.1c0.1,0.8,0.1,1.4,0.1,1.9
			c2.1-0.2,2.3-4.5,2.4-8.8c0-1,0.3-2,0.7-2.9c0-0.1,0.1-0.2,0.1-0.3c4.1-15.4,13-38.5,27.3-47C100.5,129.2,102.3,129.2,103.9,130.1
			L103.9,130.1z M115.6,142.6c-2.4-1.4-4.7-3.2-7-5.6c-1-1-1.8-1.9-2.5-2.8c-4.1,7.7-7.9,21-9.8,30.4c3.4-3.2,8.5-5.5,15-2.9
			C111.6,158.8,113.8,147.4,115.6,142.6L115.6,142.6L115.6,142.6z M198.7,32.1L198.7,32.1c-0.5,0.5-0.9,0.9-1.4,1.3
			c-3.6-5-7.9-9.4-13-12.6c0.5-0.3,0.9-0.5,1.4-0.9c2.6,0.4,5.6,1.9,8,4.2C195.9,26.2,197.7,28.9,198.7,32.1L198.7,32.1z M187.1,19
			c1.3-1,2.7-2.2,4-3.7c2-0.3,4.5-0.1,6.9,0.9c2.4,0.9,4.6,2.5,6.3,4.8c-0.4,3.5-1.8,7-4.6,10.1c-1-3.1-2.9-5.8-5-7.8
			C192.3,21.1,189.6,19.6,187.1,19L187.1,19z M192.1,13.9c0.2-0.3,0.4-0.6,0.6-0.9c0.8-1.3,1.3-2.7,1.6-4.1c0.9-0.4,2-0.7,3.1-0.8
			c1.5-0.1,3.1,0.1,4.6,0.8c1.4,2.9,2.4,6.5,2.3,10.2c-1.7-1.9-3.8-3.3-6-4.1C196.3,14.1,194.1,13.8,192.1,13.9L192.1,13.9z
			 M194.6,7.4c0.1-0.6,0.2-1.2,0.3-1.7c0.7-4.1,1.8-4,4.3-1.2c0.7,0.8,1.4,1.7,2,2.7c-1.3-0.4-2.6-0.5-3.8-0.4
			C196.4,6.9,195.4,7.1,194.6,7.4L194.6,7.4z M98.4,39c-0.2-0.1-0.3-0.3-0.5-0.4c-4-3.2-6.4-7-7.7-11c0,0,0-0.1,0.1-0.1
			c1.4-3.2,3.8-5.6,6.4-7.3c2.8-1.8,5.8-2.8,8.5-2.8c1.8,1.6,3.6,2.8,5.4,3.7c-2.9,1.4-5.7,3.8-7.9,6.9
			C100.3,31.2,98.8,34.9,98.4,39L98.4,39z M111.9,21.9c2.7,1.3,5.2,2,7.1,2.8c-2.4,1.9-4.6,4.1-6.5,6.6c-2.9,3.7-5,7.7-6.5,11.9
			c-1.8-0.5-4-1.6-6.4-3.3c0.2-4.2,1.8-8,4-11.1C105.8,25.5,108.9,23.1,111.9,21.9L111.9,21.9z M89.7,25.9
			c-1.1-4.7-0.7-9.5,0.5-13.5c1.6-1.1,3.3-1.7,5-1.9c1.7-0.2,3.4-0.1,4.8,0.4c0.5,1.2,1.1,2.4,2,3.5c0.6,0.7,1.1,1.3,1.7,1.9
			c-2.6,0.2-5.4,1.2-7.9,2.9C93.4,20.8,91.2,23,89.7,25.9L89.7,25.9z M90.8,10.5c0.5-1.4,1.1-2.8,1.8-3.9c2.2-3.8,4.3-6.4,6-0.6
			c0.3,1,0.6,2.2,1,3.4c-1.4-0.3-2.9-0.4-4.5-0.2C93.6,9.4,92.1,9.8,90.8,10.5L90.8,10.5z M133.6,16.1c-0.9-0.8-1.9-1.5-3.1-1.6
			c-1.3-5.2,3.3-4.1,5.5-3.3c1.4,1.3,2,2.8,2.3,3.8C136.6,15.1,135.1,15.5,133.6,16.1L133.6,16.1z M137,10.9c-0.3-2-0.7-7.8,4.6-7.3
			c4.4,0.4,6.7,3.8,7.8,6c0.7,2.7,0.3,5.2,0.1,6.3c-3.5-0.9-7-1.4-10.3-1.1C138.9,13.9,138.3,12.3,137,10.9L137,10.9z M150.4,10.6
			c0.9-1.8,3.3-6.2,6.9-4.6c3.4,1.5,3.9,7,3.9,9.5c-0.5,2.3-1.2,3.8-1.5,4.5c-3.1-1.7-6.3-3-9.5-4C150.4,15.1,150.8,13,150.4,10.6
			L150.4,10.6z M230.5,280.9c0.2,0.1,0.4,0.1,0.7,0.1c1,0.1,2.1-0.1,3-0.6c1.7-0.9,3.3-2.9,4.2-6c0.4,4,1.9,6.6,3.8,7.9
			c0.7,0.5,1.5,0.8,2.3,0.9c-1.2,3.5-3.4,5.6-5.6,6.4c-1,0.3-1.9,0.5-2.9,0.4c-0.1-0.1-0.2-0.1-0.3-0.1c-0.1,0-0.2,0-0.2,0
			c-1-0.2-1.9-0.7-2.7-1.4c-1.5-1.4-2.5-3.9-2.4-7.3c0-0.1,0-0.1,0-0.2C230.5,281.1,230.5,281,230.5,280.9L230.5,280.9z
			 M235.3,290.8c-1.1-0.2-2.1-0.8-3-1.5c-1.4-1.3-2.5-3.4-2.7-6.3c-1.6,2.9-3.6,4.6-5.6,5.2c-1,4.4-0.6,7.6,0.6,9.4
			c0.5,0.8,1.2,1.3,1.9,1.5c0.7,0.2,1.6,0.2,2.4-0.1c2-0.7,4.3-2.9,5.9-6.7c0.1-0.1,0.2-0.2,0.3-0.2
			C235.2,291.7,235.2,291.3,235.3,290.8L235.3,290.8z M244.8,282.5c-0.7-0.1-1.5-0.3-2.1-0.8c-2-1.4-3.6-4.4-3.5-9.3
			c0,0,0.1,0,0.1,0c1.7-0.9,3.3-2.9,4.2-6c0.8,3.5,2.6,5.8,4.6,7c0.8,0.5,1.7,0.8,2.6,0.8c0.1,3.9-1.2,6.4-3,7.6
			c-0.7,0.4-1.4,0.7-2.2,0.7c-0.1-0.1-0.1-0.1-0.2-0.1C245.1,282.4,244.9,282.4,244.8,282.5L244.8,282.5z M250.9,273.4
			c-0.8,0-1.7-0.3-2.5-0.7c-2-1.2-3.8-3.7-4.4-7.7c0.9,0.4,1.8,0.5,2.6,0.5c1-0.1,1.9-0.6,2.7-1.3c1.2-1.2,1.9-3.2,2-6
			c1.4,3,3.2,4.7,5,5.4c0.1,0.1,0.3,0.1,0.4,0.1c0.1,0.6,0.2,1.1,0.3,1.6c0,0,0,0,0,0.1c-0.1,3.6-1.4,6.1-3.2,7.2
			c-0.7,0.5-1.5,0.8-2.4,0.8c-0.1-0.1-0.2-0.1-0.3-0.1C251.1,273.4,251,273.4,250.9,273.4L250.9,273.4z M243.9,237.2
			c1.8,2.7,3.8,4.3,5.6,5c0.8,0.3,1.5,0.4,2.2,0.4c0.2,0.5,0.4,0.9,0.6,1.4c0,0.1,0,0.2,0,0.2c0.9,3.8,0.5,6.5-0.7,8.1
			c-0.5,0.7-1.2,1.2-2,1.4c-0.8,0.2-1.7,0.2-2.7-0.2c-2.3-0.8-4.8-3.3-6.9-7.7c0,0,0-0.1-0.1-0.1c-0.1-0.3-0.3-0.7-0.4-1
			c0,0,0,0,0-0.1c0.9-0.1,1.8-0.6,2.5-1.2C243.3,242.2,244.1,240.1,243.9,237.2z"/>
	</g>
</g>
</svg>
